<svg xmlns="http://www.w3.org/2000/svg" xmlns:xlink="http://www.w3.org/1999/xlink" width="500" zoomAndPan="magnify" viewBox="0 0 375 374.999991" height="500" preserveAspectRatio="xMidYMid meet" version="1.0"><defs><clipPath id="bebf74e677"><path d="M 16.042969 85 L 171 85 L 171 255 L 16.042969 255 Z M 16.042969 85 " clip-rule="nonzero"/></clipPath><clipPath id="95878a522f"><path d="M 16.042969 84 L 172 84 L 172 256 L 16.042969 256 Z M 16.042969 84 " clip-rule="nonzero"/></clipPath><clipPath id="8866ddb95b"><path d="M 222 14.09375 L 288 14.09375 L 288 77 L 222 77 Z M 222 14.09375 " clip-rule="nonzero"/></clipPath><clipPath id="289df32391"><path d="M 222 14.09375 L 288 14.09375 L 288 78 L 222 78 Z M 222 14.09375 " clip-rule="nonzero"/></clipPath></defs><g clip-path="url(#bebf74e677)"><path fill="#ffeee9" d="M 16.839844 125.277344 L 121.484375 85.734375 L 170.265625 214.824219 L 65.617188 254.367188 Z M 16.839844 125.277344 " fill-opacity="1" fill-rule="nonzero"/></g><g clip-path="url(#95878a522f)"><path fill="#271700" d="M 65.722656 255.011719 C 65.433594 255.011719 65.148438 254.84375 65.050781 254.558594 L 16.210938 125.484375 C 16.140625 125.316406 16.140625 125.101562 16.210938 124.933594 C 16.285156 124.765625 16.425781 124.621094 16.617188 124.550781 L 121.238281 84.949219 C 121.402344 84.875 121.621094 84.875 121.785156 84.949219 C 121.953125 85.019531 122.097656 85.164062 122.167969 85.355469 L 171.007812 214.429688 C 171.152344 214.789062 170.960938 215.21875 170.601562 215.363281 L 65.984375 254.964844 C 65.914062 254.988281 65.816406 255.011719 65.722656 255.011719 Z M 17.789062 125.652344 L 66.128906 253.386719 L 169.40625 214.285156 L 121.070312 86.550781 Z M 17.789062 125.652344 " fill-opacity="1" fill-rule="nonzero"/></g><path fill="#ff3131" d="M 30.46875 130.421875 L 69.058594 115.839844 L 85.527344 159.421875 L 46.9375 174.003906 Z M 30.46875 130.421875 " fill-opacity="1" fill-rule="nonzero"/><path fill="#ffeee9" d="M 56.285156 140.339844 C 63.960938 137.4375 72.566406 141.324219 75.46875 149.003906 L 78.605469 157.308594 L 50.761719 167.828125 L 47.621094 159.523438 C 44.722656 151.847656 48.605469 143.242188 56.285156 140.339844 Z M 56.285156 140.339844 " fill-opacity="1" fill-rule="nonzero"/><path fill="#ffeee9" d="M 62.683594 134.984375 C 62.683594 135.53125 62.628906 136.074219 62.523438 136.609375 C 62.414062 137.144531 62.257812 137.664062 62.046875 138.171875 C 61.839844 138.675781 61.582031 139.15625 61.277344 139.609375 C 60.976562 140.066406 60.628906 140.484375 60.242188 140.871094 C 59.855469 141.257812 59.433594 141.605469 58.980469 141.90625 C 58.527344 142.210938 58.046875 142.46875 57.542969 142.675781 C 57.035156 142.886719 56.515625 143.042969 55.980469 143.152344 C 55.441406 143.257812 54.902344 143.3125 54.355469 143.3125 C 53.808594 143.3125 53.265625 143.257812 52.730469 143.152344 C 52.195312 143.042969 51.671875 142.886719 51.167969 142.675781 C 50.664062 142.46875 50.183594 142.210938 49.726562 141.90625 C 49.273438 141.605469 48.851562 141.257812 48.464844 140.871094 C 48.078125 140.484375 47.734375 140.066406 47.429688 139.609375 C 47.125 139.15625 46.871094 138.675781 46.660156 138.171875 C 46.453125 137.664062 46.292969 137.144531 46.1875 136.609375 C 46.082031 136.074219 46.027344 135.53125 46.027344 134.984375 C 46.027344 134.4375 46.082031 133.894531 46.1875 133.359375 C 46.292969 132.824219 46.453125 132.300781 46.660156 131.796875 C 46.871094 131.292969 47.125 130.8125 47.429688 130.359375 C 47.734375 129.902344 48.078125 129.480469 48.464844 129.09375 C 48.851562 128.710938 49.273438 128.363281 49.726562 128.058594 C 50.183594 127.757812 50.664062 127.5 51.167969 127.289062 C 51.671875 127.082031 52.195312 126.921875 52.730469 126.816406 C 53.265625 126.710938 53.808594 126.65625 54.355469 126.65625 C 54.902344 126.65625 55.441406 126.710938 55.980469 126.816406 C 56.515625 126.921875 57.035156 127.082031 57.542969 127.289062 C 58.046875 127.5 58.527344 127.757812 58.980469 128.058594 C 59.433594 128.363281 59.855469 128.710938 60.242188 129.09375 C 60.628906 129.480469 60.976562 129.902344 61.277344 130.359375 C 61.582031 130.8125 61.839844 131.292969 62.046875 131.796875 C 62.257812 132.300781 62.414062 132.824219 62.523438 133.359375 C 62.628906 133.894531 62.683594 134.4375 62.683594 134.984375 Z M 62.683594 134.984375 " fill-opacity="1" fill-rule="nonzero"/><path fill="#ff914d" d="M 76.945312 112.847656 L 114.683594 98.585938 L 116.019531 102.121094 L 78.28125 116.382812 Z M 76.945312 112.847656 " fill-opacity="1" fill-rule="nonzero"/><path fill="#ff914d" d="M 79.863281 120.554688 L 117.601562 106.292969 L 118.9375 109.828125 L 81.199219 124.089844 Z M 79.863281 120.554688 " fill-opacity="1" fill-rule="nonzero"/><path fill="#ff914d" d="M 50.097656 181.003906 L 87.835938 166.746094 L 89.175781 170.28125 L 51.433594 184.542969 Z M 50.097656 181.003906 " fill-opacity="1" fill-rule="nonzero"/><path fill="#ff914d" d="M 53.015625 188.714844 L 90.753906 174.453125 L 92.09375 177.988281 L 54.351562 192.25 Z M 53.015625 188.714844 " fill-opacity="1" fill-rule="nonzero"/><path fill="#ff914d" d="M 55.925781 196.398438 L 93.664062 182.136719 L 95 185.671875 L 57.261719 199.933594 Z M 55.925781 196.398438 " fill-opacity="1" fill-rule="nonzero"/><path fill="#ff914d" d="M 68.113281 228.714844 L 105.851562 214.457031 L 107.1875 217.992188 L 69.449219 232.253906 Z M 68.113281 228.714844 " fill-opacity="1" fill-rule="nonzero"/><path fill="#ff914d" d="M 71.019531 236.402344 L 108.761719 222.140625 L 110.097656 225.675781 L 72.359375 239.9375 Z M 71.019531 236.402344 " fill-opacity="1" fill-rule="nonzero"/><path fill="#ff914d" d="M 58.816406 204.117188 L 96.558594 189.855469 L 104.289062 210.316406 L 66.546875 224.578125 Z M 58.816406 204.117188 " fill-opacity="1" fill-rule="nonzero"/><path fill="#ff914d" d="M 82.820312 128.300781 L 120.5625 114.039062 L 156.171875 208.277344 L 118.429688 222.535156 Z M 82.820312 128.300781 " fill-opacity="1" fill-rule="nonzero"/><path fill="#271700" d="M 36.765625 133.308594 C 35.449219 133.308594 34.324219 132.351562 33.65625 130.558594 L 30.304688 121.726562 C 30.164062 121.367188 30.355469 120.9375 30.710938 120.792969 C 31.09375 120.652344 31.503906 120.84375 31.644531 121.199219 L 34.996094 130.03125 C 35.855469 132.304688 37.007812 131.875 37.363281 131.730469 L 38.203125 131.417969 C 38.871094 131.179688 39.015625 130.796875 39.0625 130.484375 C 39.136719 130.03125 39.039062 129.410156 38.753906 128.617188 L 34.78125 118.113281 C 34.300781 116.871094 32.914062 116.222656 31.644531 116.703125 L 31.429688 116.773438 C 30.1875 117.253906 29.539062 118.640625 30.019531 119.910156 L 30.113281 120.125 C 30.257812 120.484375 30.066406 120.914062 29.707031 121.058594 C 29.324219 121.199219 28.917969 121.007812 28.773438 120.652344 L 28.679688 120.433594 C 27.9375 118.449219 28.941406 116.222656 30.929688 115.457031 L 31.144531 115.386719 C 33.128906 114.644531 35.355469 115.648438 36.121094 117.636719 L 40.09375 128.140625 C 40.476562 129.167969 40.621094 130.03125 40.476562 130.75 C 40.308594 131.707031 39.710938 132.398438 38.703125 132.78125 L 37.867188 133.09375 C 37.484375 133.238281 37.101562 133.308594 36.742188 133.308594 Z M 36.765625 133.308594 " fill-opacity="1" fill-rule="nonzero"/><path fill="#ffeee9" d="M 253.441406 92.660156 L 357.089844 134.75 L 305.171875 262.609375 L 201.523438 220.523438 Z M 253.441406 92.660156 " fill-opacity="1" fill-rule="nonzero"/><path fill="#271700" d="M 305.226562 263.269531 C 305.132812 263.269531 305.035156 263.269531 304.964844 263.21875 L 201.304688 221.152344 C 200.945312 221.007812 200.753906 220.578125 200.894531 220.21875 L 252.796875 92.34375 C 252.871094 92.175781 253.015625 92.03125 253.179688 91.960938 C 253.347656 91.886719 253.5625 91.886719 253.730469 91.960938 L 357.394531 134.027344 C 357.558594 134.097656 357.703125 134.242188 357.777344 134.410156 C 357.847656 134.578125 357.847656 134.792969 357.777344 134.960938 L 305.875 262.835938 C 305.753906 263.125 305.492188 263.292969 305.203125 263.292969 Z M 202.5 220.101562 L 304.820312 261.640625 L 356.171875 135.105469 L 253.851562 93.5625 Z M 202.5 220.101562 " fill-opacity="1" fill-rule="nonzero"/><path fill="#ff3131" d="M 259.980469 105.6875 L 298.203125 121.207031 L 280.675781 164.375 L 242.453125 148.851562 Z M 259.980469 105.6875 " fill-opacity="1" fill-rule="nonzero"/><path fill="#ffeee9" d="M 272.175781 130.488281 C 279.78125 133.574219 283.453125 142.273438 280.367188 149.875 L 277.027344 158.101562 L 249.445312 146.902344 L 252.785156 138.675781 C 255.875 131.074219 264.570312 127.398438 272.175781 130.488281 Z M 272.175781 130.488281 " fill-opacity="1" fill-rule="nonzero"/><path fill="#ffeee9" d="M 282.664062 125.246094 C 282.664062 125.792969 282.609375 126.332031 282.503906 126.871094 C 282.394531 127.40625 282.238281 127.925781 282.027344 128.429688 C 281.820312 128.9375 281.5625 129.417969 281.257812 129.871094 C 280.953125 130.324219 280.609375 130.746094 280.222656 131.132812 C 279.835938 131.519531 279.414062 131.863281 278.960938 132.167969 C 278.507812 132.472656 278.027344 132.730469 277.519531 132.9375 C 277.015625 133.148438 276.496094 133.304688 275.960938 133.414062 C 275.421875 133.519531 274.882812 133.570312 274.335938 133.570312 C 273.789062 133.570312 273.246094 133.519531 272.710938 133.414062 C 272.175781 133.304688 271.652344 133.148438 271.148438 132.9375 C 270.644531 132.730469 270.164062 132.472656 269.707031 132.167969 C 269.253906 131.863281 268.832031 131.519531 268.445312 131.132812 C 268.058594 130.746094 267.714844 130.324219 267.410156 129.871094 C 267.105469 129.417969 266.851562 128.9375 266.640625 128.429688 C 266.433594 127.925781 266.273438 127.40625 266.167969 126.871094 C 266.0625 126.332031 266.007812 125.792969 266.007812 125.246094 C 266.007812 124.699219 266.0625 124.15625 266.167969 123.621094 C 266.273438 123.082031 266.433594 122.5625 266.640625 122.058594 C 266.851562 121.554688 267.105469 121.074219 267.410156 120.617188 C 267.714844 120.164062 268.058594 119.742188 268.445312 119.355469 C 268.832031 118.96875 269.253906 118.625 269.707031 118.320312 C 270.164062 118.015625 270.644531 117.761719 271.148438 117.550781 C 271.652344 117.34375 272.175781 117.183594 272.710938 117.078125 C 273.246094 116.972656 273.789062 116.917969 274.335938 116.917969 C 274.882812 116.917969 275.421875 116.972656 275.960938 117.078125 C 276.496094 117.183594 277.015625 117.34375 277.519531 117.550781 C 278.027344 117.761719 278.507812 118.015625 278.960938 118.320312 C 279.414062 118.625 279.835938 118.96875 280.222656 119.355469 C 280.609375 119.742188 280.953125 120.164062 281.257812 120.617188 C 281.5625 121.074219 281.820312 121.554688 282.027344 122.058594 C 282.238281 122.5625 282.394531 123.082031 282.503906 123.621094 C 282.609375 124.15625 282.664062 124.699219 282.664062 125.246094 Z M 282.664062 125.246094 " fill-opacity="1" fill-rule="nonzero"/><path fill="#ff914d" d="M 306.015625 124.40625 L 343.394531 139.585938 L 341.972656 143.085938 L 304.59375 127.910156 Z M 306.015625 124.40625 " fill-opacity="1" fill-rule="nonzero"/><path fill="#ff914d" d="M 302.902344 132.007812 L 340.28125 147.1875 L 338.859375 150.691406 L 301.480469 135.511719 Z M 302.902344 132.007812 " fill-opacity="1" fill-rule="nonzero"/><path fill="#ff914d" d="M 239.980469 156.148438 L 277.363281 171.328125 L 275.9375 174.828125 L 238.558594 159.652344 Z M 239.980469 156.148438 " fill-opacity="1" fill-rule="nonzero"/><path fill="#ff914d" d="M 236.914062 163.761719 L 274.296875 178.9375 L 272.871094 182.441406 L 235.492188 167.261719 Z M 236.914062 163.761719 " fill-opacity="1" fill-rule="nonzero"/><path fill="#ff914d" d="M 233.816406 171.394531 L 271.195312 186.574219 L 269.773438 190.074219 L 232.390625 174.898438 Z M 233.816406 171.394531 " fill-opacity="1" fill-rule="nonzero"/><path fill="#ff914d" d="M 220.820312 203.375 L 258.199219 218.554688 L 256.777344 222.054688 L 219.394531 206.878906 Z M 220.820312 203.375 " fill-opacity="1" fill-rule="nonzero"/><path fill="#ff914d" d="M 217.726562 210.988281 L 255.109375 226.164062 L 253.6875 229.667969 L 216.304688 214.488281 Z M 217.726562 210.988281 " fill-opacity="1" fill-rule="nonzero"/><path fill="#ff914d" d="M 230.714844 179.011719 L 268.097656 194.1875 L 259.867188 214.453125 L 222.488281 199.273438 Z M 230.714844 179.011719 " fill-opacity="1" fill-rule="nonzero"/><path fill="#ff914d" d="M 299.808594 139.695312 L 337.191406 154.871094 L 299.289062 248.210938 L 261.90625 233.035156 Z M 299.808594 139.695312 " fill-opacity="1" fill-rule="nonzero"/><path fill="#271700" d="M 265.503906 113.230469 C 265.144531 113.230469 264.738281 113.160156 264.355469 112.992188 L 263.542969 112.65625 C 262.5625 112.25 261.964844 111.558594 261.773438 110.601562 C 261.628906 109.835938 261.773438 108.949219 262.15625 107.945312 L 265.71875 99.1875 C 265.863281 98.828125 266.292969 98.636719 266.652344 98.777344 C 267.011719 98.921875 267.203125 99.351562 267.058594 99.710938 L 263.496094 108.46875 C 263.207031 109.1875 263.089844 109.835938 263.183594 110.3125 C 263.28125 110.792969 263.566406 111.101562 264.09375 111.316406 L 264.90625 111.652344 C 265.554688 111.917969 265.9375 111.75 266.175781 111.558594 C 266.535156 111.269531 266.894531 110.742188 267.203125 109.976562 L 271.4375 99.570312 C 271.941406 98.324219 271.34375 96.914062 270.097656 96.410156 L 269.882812 96.339844 C 268.640625 95.835938 267.226562 96.433594 266.726562 97.679688 L 266.628906 97.894531 C 266.484375 98.253906 266.054688 98.445312 265.695312 98.300781 C 265.335938 98.15625 265.144531 97.726562 265.289062 97.367188 L 265.386719 97.152344 C 266.175781 95.191406 268.449219 94.234375 270.410156 95.023438 L 270.625 95.09375 C 272.589844 95.882812 273.546875 98.15625 272.753906 100.121094 L 268.519531 110.527344 C 268.113281 111.558594 267.609375 112.273438 267.035156 112.707031 C 266.582031 113.066406 266.054688 113.230469 265.503906 113.230469 Z M 265.503906 113.230469 " fill-opacity="1" fill-rule="nonzero"/><path fill="#ff8782" d="M 322.625 240.199219 C 322.625 240.199219 328.871094 236.132812 327.335938 227.230469 C 325.804688 218.351562 324.632812 211.292969 324.632812 211.292969 C 324.632812 211.292969 327.171875 204.523438 326.882812 199.976562 C 326.570312 195.429688 322.410156 194.472656 318.699219 195.382812 C 318.699219 195.382812 315.109375 187.582031 308.195312 193.847656 C 308.195312 193.847656 303.050781 186.074219 297.019531 195.023438 C 297.019531 195.023438 292.304688 186.097656 289.53125 175.832031 C 286.753906 165.566406 281.320312 164.226562 278.308594 167.933594 C 275.292969 171.644531 285.4375 200.859375 285.4375 200.859375 C 285.4375 200.859375 281.945312 212.132812 284.671875 219.335938 C 287.425781 226.535156 302.308594 245.871094 302.308594 245.871094 L 313.433594 280.925781 L 336.695312 274.324219 C 336.695312 274.324219 329.0625 258.339844 322.671875 240.222656 Z M 322.625 240.199219 " fill-opacity="1" fill-rule="nonzero"/><path fill="#271700" d="M 308.410156 223.808594 C 308.121094 223.808594 307.835938 223.617188 307.765625 223.304688 C 304.316406 209.425781 295.25 207.203125 295.152344 207.179688 C 294.960938 207.128906 294.816406 207.011719 294.722656 206.84375 C 294.625 206.675781 294.625 206.484375 294.699219 206.292969 C 297.28125 199.808594 296.421875 197.128906 295.65625 196.097656 C 294.890625 195.023438 293.644531 194.878906 292.738281 194.949219 C 289.960938 195.140625 287.640625 199.59375 286.992188 201.292969 C 286.875 201.625 286.492188 201.792969 286.15625 201.675781 C 285.820312 201.554688 285.652344 201.171875 285.773438 200.835938 C 285.894531 200.550781 288.453125 193.945312 292.640625 193.65625 C 294.410156 193.539062 295.824219 194.136719 296.707031 195.355469 C 298.238281 197.4375 298.046875 201.171875 296.15625 206.148438 C 298.527344 206.960938 305.921875 210.503906 309.03125 223.019531 C 309.128906 223.378906 308.914062 223.738281 308.554688 223.808594 C 308.503906 223.808594 308.457031 223.808594 308.386719 223.808594 Z M 308.410156 223.808594 " fill-opacity="1" fill-rule="nonzero"/><path fill="#271700" d="M 313.867188 209.09375 C 313.816406 209.09375 313.769531 209.09375 313.746094 209.09375 C 310.875 209.019531 309.414062 205.574219 309.34375 205.429688 C 309.199219 205.097656 309.34375 204.714844 309.703125 204.570312 C 310.035156 204.425781 310.417969 204.570312 310.5625 204.929688 C 310.5625 204.953125 311.761719 207.726562 313.792969 207.777344 C 313.816406 207.777344 313.867188 207.777344 313.890625 207.777344 C 316.042969 207.777344 318.363281 206.171875 318.746094 203.085938 C 318.988281 201.101562 317.648438 196.601562 317.648438 196.578125 C 317.550781 196.21875 317.742188 195.859375 318.078125 195.765625 C 318.414062 195.667969 318.796875 195.859375 318.890625 196.195312 C 318.9375 196.386719 320.328125 200.980469 320.039062 203.253906 C 319.5625 207.105469 316.617188 209.09375 313.890625 209.09375 Z M 313.867188 209.09375 " fill-opacity="1" fill-rule="nonzero"/><path fill="#271700" d="M 304.269531 208.375 C 303.335938 208.375 302.476562 208.160156 301.878906 207.703125 C 299.722656 206.125 298.957031 202.34375 298.910156 202.175781 C 298.839844 201.816406 299.078125 201.484375 299.4375 201.410156 C 299.796875 201.339844 300.128906 201.578125 300.203125 201.9375 C 300.203125 201.960938 300.894531 205.382812 302.644531 206.675781 C 303.433594 207.25 305.082031 207.226562 306.542969 206.605469 C 307.261719 206.292969 308.9375 205.382812 309.152344 203.636719 C 309.558594 200.40625 307.738281 194.972656 307.714844 194.925781 C 307.597656 194.589844 307.789062 194.207031 308.121094 194.089844 C 308.457031 193.96875 308.839844 194.160156 308.960938 194.496094 C 309.03125 194.734375 310.898438 200.261719 310.445312 203.804688 C 310.226562 205.527344 308.984375 206.988281 307.046875 207.824219 C 306.113281 208.230469 305.132812 208.421875 304.246094 208.421875 Z M 304.269531 208.375 " fill-opacity="1" fill-rule="nonzero"/><path fill="#271700" d="M 321.378906 210.144531 C 321.308594 210.144531 321.261719 210.144531 321.1875 210.144531 C 318.316406 210 317.503906 207.179688 317.480469 207.058594 C 317.382812 206.699219 317.574219 206.339844 317.933594 206.246094 C 318.292969 206.148438 318.652344 206.339844 318.746094 206.699219 C 318.769531 206.796875 319.371094 208.734375 321.261719 208.828125 C 323.246094 208.925781 324.417969 206.605469 324.417969 206.578125 C 324.585938 206.246094 324.96875 206.125 325.304688 206.292969 C 325.640625 206.460938 325.757812 206.84375 325.589844 207.179688 C 325.519531 207.296875 324.082031 210.144531 321.378906 210.144531 Z M 321.378906 210.144531 " fill-opacity="1" fill-rule="nonzero"/><path fill="#271700" d="M 159.808594 88.347656 C 159.808594 88.347656 187.808594 67.074219 217.214844 89.089844 C 245.667969 110.359375 236.644531 156.640625 244.804688 178.414062 C 252.964844 200.191406 257.679688 219 240.355469 228.90625 C 223.03125 238.8125 154.257812 245.871094 133.464844 219.765625 C 121.835938 205.167969 135.449219 164.105469 135.449219 139.984375 C 135.449219 115.863281 136.429688 93.417969 159.808594 88.371094 Z M 159.808594 88.347656 " fill-opacity="1" fill-rule="nonzero"/><path fill="#ffeee9" d="M 162.992188 222.566406 C 162.992188 222.566406 170.265625 230.75 220.46875 224.335938 C 239.421875 221.917969 194.890625 296.839844 194.890625 296.839844 L 150.667969 289.421875 L 162.992188 222.589844 Z M 162.992188 222.566406 " fill-opacity="1" fill-rule="nonzero"/><path fill="#ff8782" d="M 280.363281 274.800781 L 264.019531 282.050781 C 261.652344 290.285156 258.109375 296.050781 253.589844 295.644531 C 246.144531 294.949219 240.140625 294.542969 234.898438 294.328125 C 221.019531 294.734375 206.878906 294.925781 196.613281 295.046875 C 196.375 295.046875 196.160156 295.046875 195.917969 295.070312 C 195.558594 295.070312 195.175781 295.09375 194.820312 295.117188 C 194.316406 295.117188 191.875 295.117188 188.09375 295.117188 C 187.234375 295.117188 186.441406 295.117188 185.726562 295.117188 C 185.320312 295.117188 184.9375 295.117188 184.578125 295.117188 C 182.804688 295.117188 181.679688 295.117188 181.371094 295.117188 C 180.75 295.117188 180.171875 295.070312 179.574219 295.046875 C 169.308594 294.949219 155.191406 294.734375 141.289062 294.328125 C 136.046875 294.542969 130.042969 294.972656 122.601562 295.644531 C 118.101562 296.050781 114.535156 290.285156 112.167969 282.050781 L 95.777344 274.777344 C 98.074219 262.835938 100.585938 252.046875 103.097656 244.890625 C 106.617188 238.40625 111.066406 233.714844 116.308594 231.082031 C 120.996094 228.714844 126.644531 227.375 132.433594 226.179688 C 134.515625 225.746094 136.597656 225.339844 138.679688 224.910156 C 141.265625 224.382812 143.847656 223.832031 146.3125 223.1875 C 147.414062 222.898438 148.492188 222.589844 149.542969 222.253906 C 152.199219 221.414062 154.714844 220.410156 156.9375 219.144531 C 157.441406 218.855469 157.917969 218.566406 158.398438 218.257812 C 161.390625 216.222656 163.449219 213.28125 164.859375 210.074219 C 164.882812 210 164.929688 209.929688 164.953125 209.859375 C 165.769531 208.015625 166.34375 206.101562 166.796875 204.234375 C 167.515625 201.171875 167.851562 198.203125 167.96875 195.835938 C 168.136719 192.917969 167.96875 190.929688 167.96875 190.929688 L 168.113281 190.929688 C 168.113281 190.882812 168.113281 190.835938 168.113281 190.835938 L 182.328125 191.480469 L 184.3125 191.550781 L 188.117188 191.695312 L 189.816406 191.625 L 193.886719 191.457031 L 208.097656 190.808594 C 208.097656 190.808594 208.097656 190.859375 208.097656 190.90625 L 208.242188 190.90625 C 208.242188 190.90625 208.148438 192.199219 208.195312 194.257812 C 208.265625 196.769531 208.53125 200.40625 209.414062 204.1875 C 209.847656 206.003906 210.421875 207.894531 211.1875 209.691406 C 211.234375 209.808594 211.28125 209.929688 211.328125 210.027344 C 212.742188 213.230469 214.800781 216.175781 217.789062 218.210938 C 218.246094 218.519531 218.746094 218.808594 219.25 219.09375 C 221.402344 220.316406 223.820312 221.296875 226.382812 222.132812 C 227.53125 222.492188 228.679688 222.828125 229.875 223.140625 C 234.324219 224.3125 239.085938 225.148438 243.753906 226.105469 C 243.921875 226.128906 244.066406 226.179688 244.230469 226.203125 C 249.855469 227.375 255.335938 228.714844 259.90625 231.011719 C 265.050781 233.597656 269.429688 238.167969 272.921875 244.484375 C 275.484375 251.636719 278.019531 262.597656 280.363281 274.730469 Z M 280.363281 274.800781 " fill-opacity="1" fill-rule="nonzero"/><path fill="#ff8782" d="M 229.226562 136.15625 C 229.226562 135.488281 229.226562 134.816406 229.226562 134.144531 C 228.726562 110.265625 209.414062 91.550781 186.085938 92.367188 C 162.753906 93.15625 144.257812 113.160156 144.757812 137.042969 C 144.757812 137.734375 144.804688 138.453125 144.855469 139.148438 C 133.65625 137.710938 127.886719 144.84375 132.269531 157.046875 C 136.621094 169.179688 144.664062 174.875 150.550781 171.1875 C 155.574219 187.148438 170.960938 203.277344 188.140625 203.300781 C 205.300781 202.128906 219.96875 184.972656 224.324219 168.699219 C 230.351562 171.90625 238.105469 165.660156 241.910156 153.289062 C 245.714844 141.039062 239.949219 134.335938 229.203125 136.179688 Z M 229.226562 136.15625 " fill-opacity="1" fill-rule="nonzero"/><path fill="#271700" d="M 188.140625 203.972656 C 181.679688 203.972656 175.027344 201.699219 168.902344 197.414062 C 168.566406 197.175781 168.496094 196.746094 168.734375 196.410156 C 168.949219 196.074219 169.40625 196.003906 169.742188 196.242188 C 175.628906 200.359375 181.96875 202.535156 188.117188 202.535156 C 194.507812 202.082031 200.992188 199.304688 206.855469 194.472656 C 207.164062 194.207031 207.621094 194.257812 207.859375 194.566406 C 208.121094 194.878906 208.074219 195.332031 207.765625 195.574219 C 201.636719 200.597656 194.890625 203.492188 188.191406 203.972656 C 188.191406 203.972656 188.167969 203.972656 188.140625 203.972656 Z M 188.140625 203.972656 " fill-opacity="1" fill-rule="nonzero"/><path fill="#271700" d="M 191.421875 163.460938 C 191.421875 163.460938 187.542969 165.542969 183.835938 163.914062 C 180.125 162.285156 181.847656 168.316406 186.492188 168.582031 C 191.132812 168.84375 193.453125 163.699219 191.421875 163.4375 Z M 191.421875 163.460938 " fill-opacity="1" fill-rule="nonzero"/><path fill="#271700" d="M 157.679688 137.925781 C 157.679688 137.925781 161.941406 136.660156 167.0625 137.351562 C 172.039062 138.023438 169.523438 131.898438 163.78125 131.585938 C 158.039062 131.273438 155.167969 137.617188 157.679688 137.925781 Z M 157.679688 137.925781 " fill-opacity="1" fill-rule="nonzero"/><path fill="#271700" d="M 213.171875 137.925781 C 213.171875 137.925781 208.914062 136.660156 203.792969 137.351562 C 198.816406 138.023438 201.328125 131.898438 207.070312 131.585938 C 212.8125 131.273438 215.683594 137.617188 213.171875 137.925781 Z M 213.171875 137.925781 " fill-opacity="1" fill-rule="nonzero"/><path fill="#271700" d="M 189.601562 190.402344 C 189.601562 190.402344 187.425781 191.578125 185.34375 190.667969 C 183.261719 189.757812 184.21875 193.15625 186.851562 193.300781 C 189.457031 193.441406 190.773438 190.546875 189.625 190.402344 Z M 189.601562 190.402344 " fill-opacity="1" fill-rule="nonzero"/><path fill="#271700" d="M 175.554688 175.28125 C 180.269531 177.410156 188.523438 179.46875 198.457031 174.824219 C 199.269531 174.441406 200.058594 175.328125 199.4375 175.925781 C 194.960938 180.304688 185.460938 186.671875 174.597656 176.40625 C 173.976562 175.832031 174.742188 174.921875 175.53125 175.28125 Z M 175.554688 175.28125 " fill-opacity="1" fill-rule="nonzero"/><path fill="#271700" d="M 163.640625 145.25 C 166.4375 145.441406 168.519531 148.265625 168.304688 151.566406 C 168.089844 154.867188 165.625 157.382812 162.824219 157.191406 C 160.027344 157 157.945312 154.175781 158.160156 150.871094 C 158.375 147.570312 160.839844 145.058594 163.640625 145.25 Z M 163.640625 145.25 " fill-opacity="1" fill-rule="nonzero"/><path fill="#271700" d="M 226.214844 155.898438 C 226.140625 155.898438 226.09375 155.898438 226.023438 155.875 C 225.640625 155.777344 225.421875 155.371094 225.519531 154.988281 C 225.589844 154.75 227.242188 148.839844 231.453125 146.445312 C 233.296875 145.394531 235.332031 145.179688 237.507812 145.777344 C 237.890625 145.871094 238.105469 146.277344 238.011719 146.660156 C 237.914062 147.042969 237.507812 147.257812 237.125 147.164062 C 235.332031 146.660156 233.65625 146.851562 232.171875 147.691406 C 228.460938 149.796875 226.929688 155.324219 226.90625 155.371094 C 226.8125 155.683594 226.523438 155.898438 226.214844 155.898438 Z M 226.214844 155.898438 " fill-opacity="1" fill-rule="nonzero"/><path fill="#271700" d="M 233.152344 154.941406 C 232.769531 154.941406 232.457031 154.652344 232.433594 154.269531 C 232.148438 149.890625 229.707031 149.367188 229.683594 149.367188 C 229.300781 149.292969 229.035156 148.910156 229.109375 148.527344 C 229.179688 148.144531 229.5625 147.882812 229.945312 147.953125 C 230.089844 147.976562 233.488281 148.695312 233.871094 154.175781 C 233.894531 154.582031 233.609375 154.917969 233.199219 154.941406 C 233.199219 154.941406 233.175781 154.941406 233.152344 154.941406 Z M 233.152344 154.941406 " fill-opacity="1" fill-rule="nonzero"/><path fill="#271700" d="M 146.457031 158.601562 C 146.148438 158.601562 145.859375 158.386719 145.765625 158.074219 C 145.765625 158.003906 144.183594 152.5 140.5 150.394531 C 139.015625 149.558594 137.339844 149.367188 135.546875 149.867188 C 135.164062 149.964844 134.78125 149.75 134.660156 149.367188 C 134.566406 148.984375 134.78125 148.601562 135.164062 148.480469 C 137.339844 147.882812 139.375 148.097656 141.21875 149.148438 C 145.429688 151.566406 147.078125 157.453125 147.152344 157.691406 C 147.246094 158.074219 147.03125 158.457031 146.648438 158.578125 C 146.578125 158.578125 146.53125 158.601562 146.457031 158.601562 Z M 146.457031 158.601562 " fill-opacity="1" fill-rule="nonzero"/><path fill="#271700" d="M 139.519531 157.644531 C 139.519531 157.644531 139.496094 157.644531 139.46875 157.644531 C 139.0625 157.621094 138.777344 157.285156 138.800781 156.878906 C 139.183594 151.398438 142.582031 150.679688 142.726562 150.65625 C 143.109375 150.585938 143.492188 150.824219 143.5625 151.230469 C 143.632812 151.613281 143.394531 151.996094 143.011719 152.070312 C 142.890625 152.09375 140.546875 152.691406 140.234375 156.976562 C 140.210938 157.359375 139.902344 157.644531 139.519531 157.644531 Z M 139.519531 157.644531 " fill-opacity="1" fill-rule="nonzero"/><path fill="#271700" d="M 152.105469 117.613281 C 152.105469 117.613281 158.445312 132.160156 172.921875 136.035156 C 182.878906 138.691406 178.402344 130.078125 178.859375 130.796875 C 179.3125 131.515625 187.976562 134.671875 195.34375 133.164062 C 203.359375 131.539062 203.359375 128.761719 203.359375 128.761719 C 203.359375 128.761719 213.195312 139.746094 226.238281 137.902344 C 230.570312 137.28125 230.328125 132.640625 230.328125 132.640625 C 230.328125 132.640625 232.050781 104.425781 210.039062 95.523438 C 188.023438 86.625 146.363281 87.53125 152.128906 117.613281 Z M 152.105469 117.613281 " fill-opacity="1" fill-rule="nonzero"/><path fill="#271700" d="M 144.855469 139.125 C 144.855469 139.125 147.511719 149.054688 150.574219 149.054688 C 153.636719 149.054688 155.550781 106.964844 155.550781 106.964844 L 150.882812 104.019531 C 150.882812 104.019531 136.167969 121.632812 144.855469 139.125 Z M 144.855469 139.125 " fill-opacity="1" fill-rule="nonzero"/><path fill="#271700" d="M 215.207031 150.632812 C 214.226562 150.464844 213.195312 150.371094 212.144531 150.324219 C 207.789062 150.15625 203.769531 151.230469 200.585938 153.121094 L 200.585938 152.929688 C 200.65625 148.265625 204.054688 144.601562 208.21875 144.746094 C 211.472656 144.867188 214.226562 147.308594 215.207031 150.632812 Z M 215.207031 150.632812 " fill-opacity="1" fill-rule="nonzero"/><path fill="#ffeee9" d="M 163.230469 226.179688 C 163.230469 226.179688 181.179688 238.789062 211.496094 226.179688 C 241.816406 213.566406 188.09375 295.09375 188.09375 295.09375 C 188.09375 295.09375 172.300781 260.421875 163.230469 226.179688 Z M 163.230469 226.179688 " fill-opacity="1" fill-rule="nonzero"/><path fill="#ff3131" d="M 297.402344 347.164062 L 85.558594 347.164062 C 84.910156 347.164062 89.625 306.84375 95.800781 274.777344 C 98.097656 262.835938 100.609375 252.046875 103.121094 244.890625 C 104.222656 241.804688 105.300781 239.386719 106.375 237.855469 C 111.617188 230.414062 121.882812 224.289062 133.199219 219.40625 C 143.945312 214.789062 155.671875 211.292969 164.929688 208.902344 C 164.929688 209.210938 164.929688 209.523438 164.980469 209.859375 C 165.195312 213.710938 166.101562 218.832031 167.492188 224.671875 C 168.375 228.402344 169.429688 232.421875 170.601562 236.5625 C 176.417969 257.023438 185.03125 280.6875 188.09375 288.921875 C 191.109375 280.761719 199.605469 257.476562 205.417969 237.160156 C 206.566406 233.164062 207.597656 229.289062 208.480469 225.675781 C 210.011719 219.359375 211.042969 213.804688 211.234375 209.738281 C 211.234375 209.453125 211.257812 209.1875 211.257812 208.902344 C 222.097656 211.699219 236.289062 215.984375 248.371094 221.871094 C 257.488281 226.296875 265.410156 231.609375 269.8125 237.855469 C 270.839844 239.316406 271.894531 241.613281 272.945312 244.554688 C 275.507812 251.710938 280.582031 265.898438 282.925781 278.03125 C 289.097656 310.097656 298.074219 347.164062 297.449219 347.164062 Z M 297.402344 347.164062 " fill-opacity="1" fill-rule="nonzero"/><path fill="#271700" d="M 183.453125 345.992188 C 183.046875 345.992188 182.734375 345.679688 182.734375 345.273438 L 182.734375 300.359375 C 182.734375 300.285156 182.734375 300.191406 182.78125 300.117188 C 183.164062 299.066406 183.8125 297.628906 184.984375 295.046875 C 185.390625 294.183594 185.84375 293.15625 186.371094 291.984375 C 186.539062 291.625 186.96875 291.457031 187.328125 291.625 C 187.6875 291.792969 187.855469 292.222656 187.6875 292.582031 C 187.160156 293.753906 186.707031 294.757812 186.300781 295.644531 C 185.175781 298.109375 184.554688 299.496094 184.195312 300.476562 L 184.195312 345.273438 C 184.195312 345.679688 183.882812 345.992188 183.476562 345.992188 Z M 183.453125 345.992188 " fill-opacity="1" fill-rule="nonzero"/><path fill="#271700" d="M 193.191406 301.648438 C 193.191406 302.003906 193.125 302.339844 192.988281 302.667969 C 192.855469 302.992188 192.664062 303.28125 192.414062 303.527344 C 192.164062 303.777344 191.875 303.96875 191.550781 304.105469 C 191.226562 304.238281 190.886719 304.304688 190.535156 304.304688 C 190.183594 304.304688 189.84375 304.238281 189.519531 304.105469 C 189.191406 303.96875 188.90625 303.777344 188.65625 303.527344 C 188.40625 303.28125 188.214844 302.992188 188.082031 302.667969 C 187.945312 302.339844 187.878906 302.003906 187.878906 301.648438 C 187.878906 301.296875 187.945312 300.960938 188.082031 300.632812 C 188.214844 300.308594 188.40625 300.019531 188.65625 299.773438 C 188.90625 299.523438 189.191406 299.332031 189.519531 299.195312 C 189.84375 299.0625 190.183594 298.992188 190.535156 298.992188 C 190.886719 298.992188 191.226562 299.0625 191.550781 299.195312 C 191.875 299.332031 192.164062 299.523438 192.414062 299.773438 C 192.664062 300.019531 192.855469 300.308594 192.988281 300.632812 C 193.125 300.960938 193.191406 301.296875 193.191406 301.648438 Z M 193.191406 301.648438 " fill-opacity="1" fill-rule="nonzero"/><path fill="#271700" d="M 193.191406 331.539062 C 193.191406 331.890625 193.125 332.230469 192.988281 332.554688 C 192.855469 332.878906 192.664062 333.167969 192.414062 333.414062 C 192.164062 333.664062 191.875 333.855469 191.550781 333.992188 C 191.226562 334.125 190.886719 334.195312 190.535156 334.195312 C 190.183594 334.195312 189.84375 334.125 189.519531 333.992188 C 189.191406 333.855469 188.90625 333.664062 188.65625 333.414062 C 188.40625 333.167969 188.214844 332.878906 188.082031 332.554688 C 187.945312 332.230469 187.878906 331.890625 187.878906 331.539062 C 187.878906 331.183594 187.945312 330.847656 188.082031 330.519531 C 188.214844 330.195312 188.40625 329.910156 188.65625 329.660156 C 188.90625 329.410156 189.191406 329.21875 189.519531 329.082031 C 189.84375 328.949219 190.183594 328.882812 190.535156 328.882812 C 190.886719 328.882812 191.226562 328.949219 191.550781 329.082031 C 191.875 329.21875 192.164062 329.410156 192.414062 329.660156 C 192.664062 329.910156 192.855469 330.195312 192.988281 330.519531 C 193.125 330.847656 193.191406 331.183594 193.191406 331.539062 Z M 193.191406 331.539062 " fill-opacity="1" fill-rule="nonzero"/><path fill="#271700" d="M 185.246094 291.625 C 185.03125 291.625 184.839844 291.527344 184.695312 291.359375 C 184.601562 291.242188 175.21875 279.753906 166.101562 267.933594 C 147.4375 243.71875 148.085938 241.730469 148.347656 240.871094 C 149.925781 235.820312 153.707031 232.089844 155.429688 230.582031 C 153.566406 229.503906 149.617188 226.777344 148.921875 222.636719 C 148.394531 219.527344 149.785156 216.296875 153.109375 213.089844 C 153.398438 212.800781 153.851562 212.824219 154.113281 213.089844 C 154.402344 213.375 154.378906 213.832031 154.113281 214.09375 C 151.171875 216.964844 149.902344 219.742188 150.359375 222.375 C 151.148438 226.992188 156.988281 229.765625 157.058594 229.792969 C 157.296875 229.886719 157.441406 230.125 157.464844 230.367188 C 157.488281 230.605469 157.394531 230.867188 157.179688 231.011719 C 157.128906 231.058594 151.625 235.269531 149.734375 241.277344 C 149.640625 241.851562 150.644531 245.464844 167.445312 267.265625 C 176.488281 278.988281 185.75 290.308594 185.820312 290.425781 C 186.058594 290.738281 186.035156 291.191406 185.726562 291.433594 C 185.582031 291.550781 185.4375 291.601562 185.269531 291.601562 Z M 185.246094 291.625 " fill-opacity="1" fill-rule="nonzero"/><path fill="#271700" d="M 190.703125 291.625 C 190.535156 291.625 190.390625 291.574219 190.246094 291.457031 C 189.9375 291.21875 189.890625 290.761719 190.152344 290.453125 C 190.246094 290.332031 199.507812 279.011719 208.53125 267.289062 C 225.328125 245.488281 226.332031 241.875 226.238281 241.277344 C 224.371094 235.269531 218.867188 231.058594 218.796875 231.035156 C 218.605469 230.890625 218.484375 230.628906 218.507812 230.390625 C 218.53125 230.148438 218.699219 229.910156 218.914062 229.816406 C 218.960938 229.792969 224.824219 227.015625 225.613281 222.398438 C 226.070312 219.765625 224.800781 216.988281 221.859375 214.117188 C 221.570312 213.832031 221.570312 213.375 221.859375 213.113281 C 222.144531 212.824219 222.601562 212.824219 222.863281 213.113281 C 226.164062 216.34375 227.578125 219.550781 227.050781 222.660156 C 226.332031 226.800781 222.410156 229.527344 220.542969 230.605469 C 222.265625 232.089844 226.070312 235.84375 227.625 240.894531 C 227.886719 241.753906 228.511719 243.742188 209.871094 267.957031 C 200.753906 279.777344 191.371094 291.265625 191.277344 291.382812 C 191.132812 291.550781 190.917969 291.648438 190.726562 291.648438 Z M 190.703125 291.625 " fill-opacity="1" fill-rule="nonzero"/><path fill="#271700" d="M 124.800781 346.683594 C 124.464844 346.683594 124.15625 346.445312 124.109375 346.109375 C 123.988281 345.535156 112.695312 289.039062 112.695312 246.828125 C 112.695312 204.617188 113.003906 246.109375 113.410156 246.109375 C 113.816406 246.109375 114.128906 246.421875 114.128906 246.828125 C 114.128906 288.894531 125.398438 345.273438 125.519531 345.824219 C 125.589844 346.207031 125.351562 346.589844 124.96875 346.660156 C 124.921875 346.660156 124.875 346.660156 124.824219 346.660156 Z M 124.800781 346.683594 " fill-opacity="1" fill-rule="nonzero"/><path fill="#271700" d="M 250.359375 346.683594 C 250.308594 346.683594 250.261719 346.683594 250.214844 346.683594 C 249.832031 346.613281 249.566406 346.230469 249.664062 345.847656 C 249.785156 345.273438 261.054688 288.921875 261.054688 246.851562 C 261.054688 204.785156 261.367188 246.132812 261.773438 246.132812 C 262.179688 246.132812 262.488281 246.445312 262.488281 246.851562 C 262.488281 289.0625 251.171875 345.558594 251.074219 346.132812 C 251.003906 346.46875 250.714844 346.707031 250.382812 346.707031 Z M 250.359375 346.683594 " fill-opacity="1" fill-rule="nonzero"/><path fill="#ff8782" d="M 128.941406 218.710938 C 128.941406 218.710938 123.175781 235.34375 101.972656 244.246094 C 94.148438 258.625 87.542969 273.917969 87.542969 273.917969 L 67.945312 258.339844 L 85.367188 232.230469 C 85.367188 232.230469 81.179688 220.699219 81.777344 216.054688 C 81.800781 215.863281 81.824219 215.695312 81.871094 215.53125 C 82.832031 211.558594 88.117188 213.039062 88.117188 213.039062 C 88.117188 213.039062 86.277344 207.320312 89.003906 204.976562 C 91.753906 202.632812 96.375 205.046875 96.375 205.046875 C 96.375 205.046875 94.53125 196.671875 98.144531 195.046875 C 101.757812 193.394531 104.246094 196.027344 104.246094 196.027344 C 104.246094 196.027344 103.816406 189.136719 108.769531 188.679688 C 110.300781 188.539062 112.09375 190.210938 113.84375 192.605469 C 117.742188 197.917969 121.429688 206.746094 121.429688 206.746094 C 121.429688 206.746094 123.941406 205.910156 128.105469 201.578125 C 132.292969 197.246094 141.050781 204.089844 128.941406 218.6875 Z M 128.941406 218.710938 " fill-opacity="1" fill-rule="nonzero"/><path fill="#ff3131" d="M 118.753906 189.648438 L 126.34375 195.285156 L 90.691406 243.292969 L 83.101562 237.65625 Z M 118.753906 189.648438 " fill-opacity="1" fill-rule="nonzero"/><path fill="#ff3131" d="M 132.890625 183.609375 L 125.042969 194.183594 L 120.398438 190.738281 L 128.246094 180.164062 C 129.203125 178.871094 131 178.605469 132.292969 179.5625 C 132.9375 180.042969 133.320312 180.738281 133.441406 181.453125 C 133.558594 182.195312 133.367188 182.960938 132.914062 183.609375 Z M 132.890625 183.609375 " fill-opacity="1" fill-rule="nonzero"/><path fill="#271700" d="M 90.894531 243.835938 C 90.773438 243.835938 90.679688 243.789062 90.582031 243.742188 L 82.996094 238.117188 C 82.757812 237.949219 82.710938 237.617188 82.878906 237.375 L 118.484375 189.351562 C 118.554688 189.230469 118.699219 189.160156 118.820312 189.136719 C 118.964844 189.136719 119.105469 189.136719 119.203125 189.230469 L 126.789062 194.855469 C 127.027344 195.023438 127.074219 195.355469 126.90625 195.597656 L 91.300781 243.621094 C 91.230469 243.742188 91.085938 243.8125 90.964844 243.835938 C 90.941406 243.835938 90.917969 243.835938 90.894531 243.835938 Z M 84.050781 237.566406 L 90.796875 242.570312 L 125.78125 195.382812 L 119.035156 190.378906 Z M 84.050781 237.566406 " fill-opacity="1" fill-rule="nonzero"/><path fill="#271700" d="M 125.042969 194.617188 C 124.945312 194.617188 124.851562 194.589844 124.777344 194.519531 L 120.136719 191.074219 C 120.039062 191.003906 119.992188 190.90625 119.96875 190.785156 C 119.96875 190.667969 119.96875 190.546875 120.039062 190.453125 L 127.886719 179.875 C 128.414062 179.15625 129.203125 178.703125 130.066406 178.558594 C 130.953125 178.4375 131.8125 178.65625 132.53125 179.179688 C 133.25 179.707031 133.703125 180.472656 133.847656 181.359375 C 133.964844 182.242188 133.75 183.105469 133.226562 183.824219 L 125.375 194.398438 C 125.28125 194.519531 125.160156 194.566406 125.015625 194.566406 Z M 121.019531 190.667969 L 124.96875 193.585938 L 132.554688 183.367188 C 132.9375 182.84375 133.105469 182.195312 133.007812 181.550781 C 132.914062 180.902344 132.578125 180.328125 132.050781 179.945312 C 131.527344 179.5625 130.878906 179.394531 130.234375 179.492188 C 129.585938 179.585938 129.011719 179.921875 128.628906 180.449219 L 121.046875 190.667969 Z M 132.890625 183.609375 Z M 132.890625 183.609375 " fill-opacity="1" fill-rule="nonzero"/><path fill="#ff3131" d="M 148.945312 124.046875 C 130.425781 123.140625 114.65625 137.425781 113.746094 155.945312 C 112.835938 174.46875 127.121094 190.234375 145.644531 191.144531 C 164.164062 192.054688 179.910156 177.769531 180.820312 159.25 C 181.730469 140.726562 167.445312 124.980469 148.921875 124.074219 Z M 146.003906 183.992188 C 131.429688 183.273438 120.183594 170.878906 120.902344 156.304688 C 121.621094 141.730469 134.015625 130.484375 148.585938 131.203125 C 163.160156 131.921875 174.40625 144.316406 173.6875 158.890625 C 172.972656 173.460938 160.574219 184.707031 146.003906 183.992188 Z M 146.003906 183.992188 " fill-opacity="1" fill-rule="nonzero"/><path fill="#271700" d="M 147.34375 191.886719 C 146.769531 191.886719 146.195312 191.886719 145.621094 191.839844 C 126.738281 190.90625 112.121094 174.800781 113.050781 155.898438 C 113.507812 146.757812 117.480469 138.335938 124.273438 132.160156 C 131.070312 125.988281 139.828125 122.875 148.992188 123.304688 C 158.136719 123.761719 166.558594 127.734375 172.730469 134.53125 C 178.882812 141.324219 182.015625 150.082031 181.585938 159.25 C 181.15625 168.414062 177.160156 176.835938 170.363281 182.984375 C 163.996094 188.753906 155.886719 191.863281 147.367188 191.863281 Z M 147.246094 124.71875 C 139.0625 124.71875 131.308594 127.710938 125.207031 133.238281 C 118.699219 139.125 114.894531 147.210938 114.464844 155.992188 C 113.578125 174.109375 127.578125 189.542969 145.691406 190.425781 C 154.472656 190.859375 162.871094 187.84375 169.382812 181.957031 C 175.890625 176.070312 179.695312 167.980469 180.125 159.199219 C 180.554688 150.417969 177.542969 142.019531 171.65625 135.511719 C 165.769531 129 157.679688 125.195312 148.898438 124.765625 C 148.347656 124.742188 147.796875 124.71875 147.246094 124.71875 Z M 147.320312 184.734375 C 146.863281 184.734375 146.433594 184.734375 145.980469 184.707031 C 131.023438 183.96875 119.464844 171.210938 120.207031 156.28125 C 120.566406 149.03125 123.726562 142.378906 129.085938 137.496094 C 134.445312 132.613281 141.410156 130.148438 148.636719 130.484375 C 163.589844 131.226562 175.148438 143.980469 174.40625 158.914062 C 173.6875 173.414062 161.675781 184.734375 147.320312 184.734375 Z M 146.027344 183.273438 C 160.191406 183.96875 172.277344 173.007812 172.972656 158.839844 C 173.664062 144.675781 162.707031 132.589844 148.539062 131.898438 C 141.671875 131.5625 135.089844 133.90625 129.996094 138.527344 C 124.898438 143.144531 121.90625 149.460938 121.570312 156.328125 C 120.878906 170.496094 131.835938 182.578125 146.003906 183.273438 Z M 146.027344 183.273438 " fill-opacity="1" fill-rule="nonzero"/><path fill="#271700" d="M 147.320312 184.734375 C 146.863281 184.734375 146.410156 184.734375 145.957031 184.707031 C 138.703125 184.351562 132.050781 181.191406 127.171875 175.832031 C 122.3125 170.472656 119.824219 163.507812 120.160156 156.28125 C 120.902344 141.324219 133.65625 129.765625 148.585938 130.507812 C 163.542969 131.25 175.101562 144.003906 174.359375 158.9375 C 174 166.1875 170.839844 172.839844 165.480469 177.722656 C 160.457031 182.292969 154.042969 184.757812 147.296875 184.757812 Z M 147.269531 131.875 C 133.65625 131.875 122.265625 142.59375 121.59375 156.328125 C 121.261719 163.195312 123.605469 169.777344 128.222656 174.851562 C 132.84375 179.945312 139.160156 182.9375 146.027344 183.273438 C 152.894531 183.609375 159.476562 181.261719 164.546875 176.644531 C 169.644531 172.027344 172.636719 165.707031 172.972656 158.839844 C 173.664062 144.675781 162.707031 132.589844 148.539062 131.898438 C 148.109375 131.898438 147.679688 131.875 147.269531 131.875 Z M 147.269531 131.875 " fill-opacity="1" fill-rule="nonzero"/><path fill="#ffeee9" d="M 137.316406 138 C 137.054688 138 136.789062 137.855469 136.671875 137.59375 C 136.503906 137.234375 136.648438 136.800781 137.003906 136.636719 C 138.128906 136.085938 139.328125 135.605469 140.523438 135.246094 C 140.90625 135.128906 141.3125 135.34375 141.410156 135.726562 C 141.527344 136.109375 141.3125 136.515625 140.929688 136.609375 C 139.804688 136.945312 138.679688 137.402344 137.628906 137.925781 C 137.53125 137.976562 137.414062 138 137.316406 138 Z M 137.316406 138 " fill-opacity="1" fill-rule="nonzero"/><path fill="#ffeee9" d="M 126.238281 150.011719 C 126.140625 150.011719 126.070312 150.011719 125.972656 149.964844 C 125.617188 149.820312 125.425781 149.390625 125.566406 149.03125 C 126.980469 145.464844 129.277344 142.28125 132.195312 139.792969 C 132.507812 139.53125 132.960938 139.578125 133.199219 139.867188 C 133.464844 140.175781 133.417969 140.632812 133.128906 140.871094 C 130.378906 143.214844 128.222656 146.207031 126.90625 149.53125 C 126.789062 149.820312 126.523438 149.988281 126.238281 149.988281 Z M 126.238281 150.011719 " fill-opacity="1" fill-rule="nonzero"/><path fill="#ffeee9" d="M 162.273438 175.28125 C 162.082031 175.28125 161.867188 175.207031 161.75 175.042969 C 161.484375 174.753906 161.507812 174.300781 161.820312 174.035156 C 163.78125 172.3125 165.386719 170.28125 166.628906 167.980469 C 166.820312 167.625 167.253906 167.503906 167.609375 167.695312 C 167.96875 167.886719 168.089844 168.316406 167.898438 168.675781 C 166.582031 171.117188 164.859375 173.292969 162.777344 175.136719 C 162.632812 175.257812 162.464844 175.328125 162.296875 175.328125 Z M 162.273438 175.28125 " fill-opacity="1" fill-rule="nonzero"/><path fill="#ff8782" d="M 119.703125 210.480469 C 116.738281 214.835938 112.742188 212.226562 112.742188 212.226562 C 112.742188 212.226562 117.625 219.335938 113.148438 221.65625 C 108.792969 223.929688 106.160156 219.335938 106.042969 219.117188 C 106.113281 219.359375 107.429688 224.957031 104.34375 226.632812 C 101.183594 228.355469 97.59375 224.742188 97.59375 224.742188 C 97.59375 224.742188 99.171875 228.667969 94.601562 228.953125 C 90.007812 229.242188 82.902344 217.585938 82.902344 217.585938 C 82.519531 217.035156 82.183594 216.320312 81.847656 215.53125 C 82.804688 211.558594 88.09375 213.039062 88.09375 213.039062 C 88.09375 213.039062 86.253906 207.320312 88.980469 204.976562 C 91.730469 202.632812 96.351562 205.046875 96.351562 205.046875 C 96.351562 205.046875 94.507812 196.671875 98.121094 195.046875 C 101.734375 193.394531 104.222656 196.027344 104.222656 196.027344 C 104.222656 196.027344 103.792969 189.136719 108.746094 188.679688 C 110.277344 188.539062 112.070312 190.210938 113.816406 192.605469 C 116.738281 197.605469 121.835938 207.296875 119.679688 210.457031 Z M 119.703125 210.480469 " fill-opacity="1" fill-rule="nonzero"/><path fill="#271700" d="M 94.460938 229.527344 C 89.699219 229.527344 83.214844 219.167969 82.445312 217.898438 C 82.28125 217.636719 82.113281 217.371094 81.945312 217.0625 C 81.800781 216.796875 81.898438 216.4375 82.183594 216.296875 C 82.445312 216.152344 82.804688 216.246094 82.949219 216.535156 C 83.09375 216.820312 83.238281 217.0625 83.40625 217.277344 C 85.34375 220.433594 91.109375 228.59375 94.601562 228.378906 C 95.824219 228.308594 96.660156 227.949219 97.042969 227.328125 C 97.667969 226.34375 97.117188 224.957031 97.117188 224.933594 C 97.019531 224.695312 97.117188 224.40625 97.332031 224.261719 C 97.546875 224.121094 97.859375 224.144531 98.023438 224.335938 C 98.050781 224.359375 101.351562 227.613281 104.101562 226.128906 C 106.785156 224.671875 105.5625 219.453125 105.515625 219.238281 C 105.441406 218.976562 105.585938 218.6875 105.851562 218.59375 C 106.113281 218.496094 106.398438 218.59375 106.542969 218.832031 C 106.640625 219 109.007812 223.1875 112.886719 221.152344 C 113.675781 220.746094 114.152344 220.148438 114.367188 219.335938 C 115.039062 216.605469 112.3125 212.5625 112.285156 212.539062 C 112.144531 212.324219 112.167969 212.011719 112.359375 211.820312 C 112.550781 211.628906 112.835938 211.605469 113.078125 211.75 C 113.21875 211.84375 116.664062 213.972656 119.273438 210.144531 C 121.117188 207.441406 115.636719 198.0625 113.003906 193.5625 L 112.527344 192.75 C 112.359375 192.484375 112.453125 192.125 112.71875 191.984375 C 112.980469 191.816406 113.339844 191.910156 113.484375 192.175781 L 113.960938 192.988281 C 118.246094 200.308594 122.265625 207.726562 120.207031 210.765625 C 118.199219 213.710938 115.707031 213.734375 114.105469 213.328125 C 114.941406 214.90625 116.019531 217.492188 115.492188 219.574219 C 115.207031 220.699219 114.535156 221.558594 113.460938 222.109375 C 110.492188 223.664062 108.265625 222.375 106.976562 221.082031 C 107.117188 223.066406 106.878906 225.890625 104.675781 227.085938 C 102.355469 228.355469 99.914062 227.109375 98.480469 226.105469 C 98.480469 226.679688 98.382812 227.300781 98.023438 227.902344 C 97.425781 228.859375 96.300781 229.382812 94.699219 229.480469 C 94.628906 229.480469 94.578125 229.480469 94.507812 229.480469 Z M 94.460938 229.527344 " fill-opacity="1" fill-rule="nonzero"/><path fill="#271700" d="M 97.617188 225.316406 C 97.449219 225.316406 97.285156 225.246094 97.164062 225.101562 L 89.125 214.667969 C 88.933594 214.429688 88.980469 214.070312 89.21875 213.878906 C 89.457031 213.6875 89.816406 213.734375 90.007812 213.972656 L 98.050781 224.40625 C 98.242188 224.644531 98.191406 225.003906 97.953125 225.195312 C 97.859375 225.269531 97.738281 225.316406 97.617188 225.316406 Z M 97.617188 225.316406 " fill-opacity="1" fill-rule="nonzero"/><path fill="#271700" d="M 106.066406 219.691406 C 105.898438 219.691406 105.707031 219.597656 105.609375 219.453125 L 96.324219 205.789062 C 96.160156 205.527344 96.230469 205.191406 96.46875 205 C 96.734375 204.832031 97.066406 204.90625 97.257812 205.144531 L 106.542969 218.808594 C 106.710938 219.070312 106.640625 219.40625 106.398438 219.597656 C 106.304688 219.667969 106.183594 219.691406 106.089844 219.691406 Z M 106.066406 219.691406 " fill-opacity="1" fill-rule="nonzero"/><path fill="#271700" d="M 112.742188 212.800781 C 112.550781 212.800781 112.359375 212.707031 112.238281 212.515625 L 104.222656 197.847656 C 104.078125 197.582031 104.175781 197.222656 104.4375 197.078125 C 104.703125 196.9375 105.058594 197.03125 105.203125 197.296875 L 113.21875 211.964844 C 113.363281 212.226562 113.269531 212.585938 113.003906 212.730469 C 112.910156 212.777344 112.835938 212.800781 112.742188 212.800781 Z M 112.742188 212.800781 " fill-opacity="1" fill-rule="nonzero"/><path fill="#271700" d="M 103.648438 231.058594 C 103.550781 231.058594 103.457031 231.058594 103.386719 230.988281 C 103.121094 230.84375 103.027344 230.507812 103.167969 230.222656 L 107.90625 221.65625 C 108.050781 221.390625 108.410156 221.296875 108.671875 221.441406 C 108.9375 221.582031 109.03125 221.917969 108.890625 222.207031 L 104.152344 230.773438 C 104.054688 230.964844 103.863281 231.058594 103.648438 231.058594 Z M 103.648438 231.058594 " fill-opacity="1" fill-rule="nonzero"/><path fill="#ff3131" d="M 108.746094 264.941406 L 106.015625 347.1875 L 55.335938 347.1875 C 36.621094 325.410156 54.761719 276.117188 55.335938 274.5625 C 55.335938 274.539062 55.335938 274.515625 55.335938 274.515625 C 64.09375 253.9375 71.414062 238.957031 71.414062 238.957031 C 85.414062 243.886719 99.628906 253.71875 99.628906 253.71875 L 103.097656 244.84375 L 108.722656 264.917969 Z M 108.746094 264.941406 " fill-opacity="1" fill-rule="nonzero"/><path fill="#271700" d="M 101.0625 346.734375 C 100.707031 346.734375 100.394531 346.445312 100.394531 346.085938 C 99.699219 306.171875 104.820312 263.53125 105.371094 259.082031 L 99.246094 254.320312 C 98.957031 254.101562 98.910156 253.671875 99.125 253.386719 C 99.339844 253.097656 99.773438 253.050781 100.058594 253.265625 L 106.472656 258.265625 C 106.664062 258.410156 106.757812 258.648438 106.734375 258.890625 C 106.6875 259.34375 100.992188 304.210938 101.734375 346.085938 C 101.734375 346.445312 101.445312 346.757812 101.089844 346.757812 Z M 101.0625 346.734375 " fill-opacity="1" fill-rule="nonzero"/><path fill="#271700" d="M 218.84375 135.4375 C 218.84375 135.84375 220.039062 149.054688 222.984375 148.933594 C 225.328125 148.839844 227.121094 134.746094 227.121094 134.746094 Z M 218.84375 135.4375 " fill-opacity="1" fill-rule="nonzero"/><path fill="#ff3131" d="M 282.878906 298.96875 C 282.878906 298.96875 299.554688 292.269531 297.402344 249.199219 C 297.402344 249.199219 321.617188 236.585938 336.644531 239.578125 C 336.644531 239.578125 358.851562 302.03125 336.644531 331.464844 C 314.441406 360.898438 258.328125 339.9375 258.328125 339.9375 Z M 282.878906 298.96875 " fill-opacity="1" fill-rule="nonzero"/><path fill="#271700" d="M 282.472656 308.015625 C 282.375 308.015625 282.253906 308.015625 282.160156 307.945312 C 281.800781 307.777344 281.65625 307.34375 281.824219 306.988281 L 286.945312 296.074219 C 287.113281 295.714844 287.542969 295.570312 287.902344 295.738281 C 288.261719 295.90625 288.40625 296.339844 288.238281 296.695312 L 283.117188 307.609375 C 282.996094 307.871094 282.734375 308.015625 282.472656 308.015625 Z M 282.472656 308.015625 " fill-opacity="1" fill-rule="nonzero"/><path fill="#271700" d="M 289.625 308.015625 C 289.21875 308.015625 288.90625 307.703125 288.90625 307.296875 L 288.90625 299.953125 C 288.90625 299.542969 289.21875 299.234375 289.625 299.234375 C 290.03125 299.234375 290.34375 299.542969 290.34375 299.953125 L 290.34375 307.296875 C 290.34375 307.703125 290.03125 308.015625 289.625 308.015625 Z M 289.625 308.015625 " fill-opacity="1" fill-rule="nonzero"/><g clip-path="url(#8866ddb95b)"><path fill="#ffeee9" d="M 256.292969 14.8125 C 239.328125 14.8125 225.566406 28.570312 225.566406 45.535156 C 225.566406 62.503906 227.695312 58.363281 231.285156 63.410156 L 222.839844 75.542969 L 240.570312 71.953125 C 245.164062 74.707031 250.550781 76.285156 256.292969 76.285156 C 273.257812 76.285156 287.015625 62.527344 287.015625 45.5625 C 287.015625 28.59375 273.257812 14.835938 256.292969 14.835938 Z M 256.292969 14.8125 " fill-opacity="1" fill-rule="nonzero"/></g><g clip-path="url(#289df32391)"><path fill="#271700" d="M 256.292969 77.003906 C 250.714844 77.003906 245.238281 75.519531 240.425781 72.71875 L 222.984375 76.238281 C 222.695312 76.285156 222.410156 76.167969 222.242188 75.925781 C 222.074219 75.6875 222.074219 75.351562 222.242188 75.113281 L 230.402344 63.410156 C 226.765625 58.148438 224.824219 51.972656 224.824219 45.535156 C 224.824219 28.1875 238.945312 14.09375 256.269531 14.09375 C 273.59375 14.09375 287.710938 28.210938 287.710938 45.535156 C 287.710938 62.863281 273.59375 76.980469 256.269531 76.980469 Z M 240.546875 71.238281 C 240.667969 71.238281 240.808594 71.261719 240.90625 71.332031 C 245.546875 74.109375 250.859375 75.566406 256.269531 75.566406 C 272.828125 75.566406 286.277344 62.097656 286.277344 45.5625 C 286.277344 29.027344 272.804688 15.554688 256.269531 15.554688 C 239.734375 15.554688 226.261719 29.027344 226.261719 45.5625 C 226.261719 62.097656 228.199219 57.910156 231.859375 63.003906 C 232.027344 63.246094 232.027344 63.578125 231.859375 63.84375 L 224.441406 74.492188 L 240.402344 71.261719 C 240.449219 71.261719 240.5 71.261719 240.546875 71.261719 Z M 240.546875 71.238281 " fill-opacity="1" fill-rule="nonzero"/></g><path fill="#ff3131" d="M 264.046875 34.554688 C 264.019531 29.960938 260.265625 26.25 255.671875 26.273438 C 251.074219 26.296875 247.367188 30.054688 247.390625 34.648438 C 247.390625 37.304688 248.660156 39.648438 250.597656 41.15625 C 244.925781 43.289062 240.90625 48.765625 240.929688 55.179688 L 240.976562 61.1875 L 270.746094 61.019531 L 270.699219 55.011719 C 270.648438 48.601562 266.558594 43.144531 260.863281 41.085938 C 262.777344 39.554688 264.019531 37.1875 263.996094 34.53125 Z M 264.046875 34.554688 " fill-opacity="1" fill-rule="nonzero"/><path fill="#ff914d" d="M 330.664062 66.691406 L 328.414062 64.441406 C 327.457031 63.484375 325.902344 63.484375 324.945312 64.441406 L 310.996094 78.390625 L 304.4375 71.835938 C 303.480469 70.878906 301.925781 70.878906 300.96875 71.835938 L 298.71875 74.085938 C 297.761719 75.042969 297.761719 76.597656 298.71875 77.554688 L 306.78125 85.617188 C 306.855469 85.714844 306.925781 85.785156 306.996094 85.859375 L 309.246094 88.105469 C 310.203125 89.0625 311.761719 89.0625 312.71875 88.105469 L 330.664062 70.160156 C 331.621094 69.203125 331.621094 67.648438 330.664062 66.691406 Z M 330.664062 66.691406 " fill-opacity="1" fill-rule="nonzero"/><path fill="#ffeee9" d="M 37.292969 255.25 L 46.625 255.25 C 47.074219 255.25 47.507812 255.335938 47.925781 255.507812 C 48.34375 255.679688 48.710938 255.925781 49.027344 256.242188 C 49.347656 256.5625 49.59375 256.925781 49.765625 257.34375 C 49.9375 257.757812 50.023438 258.1875 50.023438 258.636719 C 50.023438 259.085938 49.9375 259.519531 49.765625 259.933594 C 49.59375 260.347656 49.347656 260.714844 49.027344 261.03125 C 48.710938 261.347656 48.34375 261.59375 47.925781 261.765625 C 47.507812 261.9375 47.074219 262.023438 46.625 262.023438 L 37.292969 262.023438 C 36.84375 262.023438 36.410156 261.9375 35.992188 261.765625 C 35.578125 261.59375 35.207031 261.347656 34.890625 261.03125 C 34.570312 260.714844 34.328125 260.347656 34.152344 259.933594 C 33.980469 259.519531 33.894531 259.085938 33.894531 258.636719 C 33.894531 258.1875 33.980469 257.757812 34.152344 257.34375 C 34.328125 256.925781 34.570312 256.5625 34.890625 256.242188 C 35.207031 255.925781 35.578125 255.679688 35.992188 255.507812 C 36.410156 255.335938 36.84375 255.25 37.292969 255.25 Z M 37.292969 255.25 " fill-opacity="1" fill-rule="nonzero"/><path fill="#ffeee9" d="M 32.984375 242.472656 L 42.316406 242.472656 C 42.769531 242.472656 43.203125 242.558594 43.617188 242.730469 C 44.035156 242.902344 44.402344 243.148438 44.722656 243.464844 C 45.039062 243.78125 45.285156 244.148438 45.457031 244.5625 C 45.628906 244.980469 45.714844 245.410156 45.714844 245.859375 C 45.714844 246.308594 45.628906 246.742188 45.457031 247.15625 C 45.285156 247.570312 45.039062 247.9375 44.722656 248.253906 C 44.402344 248.570312 44.035156 248.816406 43.617188 248.988281 C 43.203125 249.160156 42.769531 249.246094 42.316406 249.246094 L 32.984375 249.246094 C 32.535156 249.246094 32.101562 249.160156 31.683594 248.988281 C 31.269531 248.816406 30.902344 248.570312 30.582031 248.253906 C 30.265625 247.9375 30.019531 247.570312 29.847656 247.15625 C 29.675781 246.742188 29.585938 246.308594 29.585938 245.859375 C 29.585938 245.410156 29.675781 244.980469 29.847656 244.5625 C 30.019531 244.148438 30.265625 243.78125 30.582031 243.464844 C 30.902344 243.148438 31.269531 242.902344 31.683594 242.730469 C 32.101562 242.558594 32.535156 242.472656 32.984375 242.472656 Z M 32.984375 242.472656 " fill-opacity="1" fill-rule="nonzero"/><path fill="#271700" d="M 46.625 262.742188 L 37.269531 262.742188 C 34.996094 262.742188 33.152344 260.898438 33.152344 258.625 C 33.152344 256.351562 34.996094 254.511719 37.269531 254.511719 L 46.625 254.511719 C 48.898438 254.511719 50.742188 256.351562 50.742188 258.625 C 50.742188 260.898438 48.898438 262.742188 46.625 262.742188 Z M 37.269531 255.96875 C 35.785156 255.96875 34.589844 257.167969 34.589844 258.648438 C 34.589844 260.132812 35.785156 261.328125 37.269531 261.328125 L 46.625 261.328125 C 48.109375 261.328125 49.304688 260.132812 49.304688 258.648438 C 49.304688 257.167969 48.109375 255.96875 46.625 255.96875 Z M 37.269531 255.96875 " fill-opacity="1" fill-rule="nonzero"/><path fill="#271700" d="M 42.316406 249.964844 L 32.960938 249.964844 C 30.6875 249.964844 28.847656 248.121094 28.847656 245.847656 C 28.847656 243.574219 30.6875 241.730469 32.960938 241.730469 L 42.316406 241.730469 C 44.589844 241.730469 46.433594 243.574219 46.433594 245.847656 C 46.433594 248.121094 44.589844 249.964844 42.316406 249.964844 Z M 32.960938 243.191406 C 31.476562 243.191406 30.28125 244.386719 30.28125 245.871094 C 30.28125 247.355469 31.476562 248.550781 32.960938 248.550781 L 42.316406 248.550781 C 43.800781 248.550781 45 247.355469 45 245.871094 C 45 244.386719 43.800781 243.191406 42.316406 243.191406 Z M 32.960938 243.191406 " fill-opacity="1" fill-rule="nonzero"/></svg>