<svg xmlns="http://www.w3.org/2000/svg" xmlns:xlink="http://www.w3.org/1999/xlink" width="500" zoomAndPan="magnify" viewBox="0 0 375 374.999991" height="500" preserveAspectRatio="xMidYMid meet" version="1.0"><defs><clipPath id="d43856850c"><path d="M 8.023438 86 L 170 86 L 170 264 L 8.023438 264 Z M 8.023438 86 " clip-rule="nonzero"/></clipPath><clipPath id="a0dc96c6f7"><path d="M 8.023438 86 L 171 86 L 171 265 L 8.023438 265 Z M 8.023438 86 " clip-rule="nonzero"/></clipPath><clipPath id="cd18d4bdea"><path d="M 223 11.960938 L 293 11.960938 L 293 78 L 223 78 Z M 223 11.960938 " clip-rule="nonzero"/></clipPath></defs><g clip-path="url(#d43856850c)"><path fill="#ffeee9" d="M 8.851562 128.347656 L 118.394531 86.953125 L 169.457031 222.085938 L 59.914062 263.480469 Z M 8.851562 128.347656 " fill-opacity="1" fill-rule="nonzero"/></g><g clip-path="url(#a0dc96c6f7)"><path fill="#271700" d="M 60.019531 264.152344 C 59.71875 264.152344 59.417969 263.980469 59.320312 263.679688 L 8.195312 128.5625 C 8.121094 128.386719 8.121094 128.164062 8.195312 127.988281 C 8.269531 127.8125 8.417969 127.660156 8.621094 127.585938 L 118.132812 86.128906 C 118.308594 86.054688 118.535156 86.054688 118.710938 86.128906 C 118.886719 86.207031 119.035156 86.355469 119.109375 86.554688 L 170.234375 221.671875 C 170.386719 222.046875 170.1875 222.496094 169.808594 222.648438 L 60.296875 264.105469 C 60.222656 264.128906 60.121094 264.152344 60.019531 264.152344 Z M 9.847656 128.738281 L 60.445312 262.449219 L 168.558594 221.519531 L 117.960938 87.808594 Z M 9.847656 128.738281 " fill-opacity="1" fill-rule="nonzero"/></g><path fill="#00b5a7" d="M 23.121094 133.734375 L 63.515625 118.46875 L 80.753906 164.089844 L 40.359375 179.355469 Z M 23.121094 133.734375 " fill-opacity="1" fill-rule="nonzero"/><path fill="#ffeee9" d="M 50.144531 144.113281 C 58.179688 141.078125 67.1875 145.144531 70.226562 153.183594 L 73.507812 161.875 L 44.359375 172.890625 L 41.074219 164.195312 C 38.039062 156.160156 42.105469 147.152344 50.144531 144.113281 Z M 50.144531 144.113281 " fill-opacity="1" fill-rule="nonzero"/><path fill="#ffeee9" d="M 56.839844 138.507812 C 56.839844 139.082031 56.785156 139.648438 56.671875 140.207031 C 56.558594 140.769531 56.394531 141.316406 56.175781 141.84375 C 55.957031 142.371094 55.6875 142.875 55.371094 143.351562 C 55.050781 143.828125 54.691406 144.265625 54.285156 144.671875 C 53.882812 145.078125 53.441406 145.4375 52.964844 145.757812 C 52.488281 146.074219 51.988281 146.34375 51.457031 146.5625 C 50.929688 146.78125 50.382812 146.945312 49.824219 147.058594 C 49.261719 147.167969 48.695312 147.226562 48.121094 147.226562 C 47.550781 147.226562 46.984375 147.167969 46.421875 147.058594 C 45.859375 146.945312 45.316406 146.78125 44.785156 146.5625 C 44.257812 146.34375 43.753906 146.074219 43.28125 145.757812 C 42.804688 145.4375 42.363281 145.078125 41.957031 144.671875 C 41.554688 144.265625 41.191406 143.828125 40.875 143.351562 C 40.554688 142.875 40.289062 142.371094 40.070312 141.84375 C 39.851562 141.316406 39.683594 140.769531 39.574219 140.207031 C 39.460938 139.648438 39.40625 139.082031 39.40625 138.507812 C 39.40625 137.9375 39.460938 137.367188 39.574219 136.808594 C 39.683594 136.246094 39.851562 135.699219 40.070312 135.171875 C 40.289062 134.644531 40.554688 134.140625 40.875 133.664062 C 41.191406 133.1875 41.554688 132.75 41.957031 132.34375 C 42.363281 131.941406 42.804688 131.578125 43.28125 131.261719 C 43.753906 130.941406 44.257812 130.671875 44.785156 130.453125 C 45.316406 130.234375 45.859375 130.070312 46.421875 129.957031 C 46.984375 129.847656 47.550781 129.792969 48.121094 129.792969 C 48.695312 129.792969 49.261719 129.847656 49.824219 129.957031 C 50.382812 130.070312 50.929688 130.234375 51.457031 130.453125 C 51.988281 130.671875 52.488281 130.941406 52.964844 131.261719 C 53.441406 131.578125 53.882812 131.941406 54.285156 132.34375 C 54.691406 132.75 55.050781 133.1875 55.371094 133.664062 C 55.6875 134.140625 55.957031 134.644531 56.175781 135.171875 C 56.394531 135.699219 56.558594 136.246094 56.671875 136.808594 C 56.785156 137.367188 56.839844 137.9375 56.839844 138.507812 Z M 56.839844 138.507812 " fill-opacity="1" fill-rule="nonzero"/><path fill="#5ce1e6" d="M 71.769531 115.335938 L 111.277344 100.40625 L 112.675781 104.109375 L 73.167969 119.035156 Z M 71.769531 115.335938 " fill-opacity="1" fill-rule="nonzero"/><path fill="#5ce1e6" d="M 74.824219 123.402344 L 114.332031 108.472656 L 115.730469 112.175781 L 76.222656 127.105469 Z M 74.824219 123.402344 " fill-opacity="1" fill-rule="nonzero"/><path fill="#5ce1e6" d="M 43.667969 186.683594 L 83.171875 171.753906 L 84.570312 175.457031 L 45.066406 190.386719 Z M 43.667969 186.683594 " fill-opacity="1" fill-rule="nonzero"/><path fill="#5ce1e6" d="M 46.722656 194.75 L 86.226562 179.824219 L 87.625 183.527344 L 48.121094 198.453125 Z M 46.722656 194.75 " fill-opacity="1" fill-rule="nonzero"/><path fill="#5ce1e6" d="M 49.765625 202.796875 L 89.273438 187.867188 L 90.671875 191.570312 L 51.164062 206.5 Z M 49.765625 202.796875 " fill-opacity="1" fill-rule="nonzero"/><path fill="#5ce1e6" d="M 62.523438 236.625 L 102.03125 221.699219 L 103.429688 225.402344 L 63.921875 240.328125 Z M 62.523438 236.625 " fill-opacity="1" fill-rule="nonzero"/><path fill="#5ce1e6" d="M 65.570312 244.671875 L 105.074219 229.742188 L 106.472656 233.445312 L 66.96875 248.375 Z M 65.570312 244.671875 " fill-opacity="1" fill-rule="nonzero"/><path fill="#5ce1e6" d="M 52.792969 210.878906 L 92.300781 195.949219 L 100.394531 217.367188 L 60.886719 232.292969 Z M 52.792969 210.878906 " fill-opacity="1" fill-rule="nonzero"/><path fill="#5ce1e6" d="M 77.921875 131.511719 L 117.429688 116.582031 L 154.703125 215.230469 L 115.199219 230.160156 Z M 77.921875 131.511719 " fill-opacity="1" fill-rule="nonzero"/><path fill="#271700" d="M 29.710938 136.753906 C 28.332031 136.753906 27.15625 135.753906 26.457031 133.875 L 22.949219 124.632812 C 22.796875 124.253906 23 123.804688 23.375 123.652344 C 23.773438 123.503906 24.199219 123.703125 24.351562 124.078125 L 27.859375 133.324219 C 28.757812 135.703125 29.960938 135.25 30.335938 135.101562 L 31.214844 134.777344 C 31.914062 134.527344 32.066406 134.125 32.117188 133.800781 C 32.191406 133.324219 32.089844 132.671875 31.789062 131.84375 L 27.632812 120.847656 C 27.132812 119.546875 25.679688 118.871094 24.351562 119.371094 L 24.125 119.445312 C 22.824219 119.945312 22.148438 121.398438 22.648438 122.726562 L 22.746094 122.953125 C 22.898438 123.328125 22.699219 123.78125 22.320312 123.929688 C 21.921875 124.078125 21.496094 123.878906 21.34375 123.503906 L 21.246094 123.277344 C 20.46875 121.199219 21.519531 118.871094 23.597656 118.066406 L 23.824219 117.992188 C 25.902344 117.214844 28.234375 118.269531 29.035156 120.347656 L 33.191406 131.34375 C 33.59375 132.421875 33.746094 133.324219 33.59375 134.074219 C 33.417969 135.078125 32.792969 135.804688 31.742188 136.203125 L 30.863281 136.53125 C 30.464844 136.679688 30.0625 136.753906 29.6875 136.753906 Z M 29.710938 136.753906 " fill-opacity="1" fill-rule="nonzero"/><path fill="#ffeee9" d="M 256.527344 94.207031 L 365.027344 138.261719 L 310.679688 272.105469 L 202.179688 228.050781 Z M 256.527344 94.207031 " fill-opacity="1" fill-rule="nonzero"/><path fill="#271700" d="M 310.734375 272.796875 C 310.636719 272.796875 310.535156 272.796875 310.460938 272.746094 L 201.949219 228.710938 C 201.574219 228.558594 201.371094 228.109375 201.523438 227.734375 L 255.855469 93.871094 C 255.929688 93.695312 256.078125 93.546875 256.253906 93.46875 C 256.429688 93.394531 256.65625 93.394531 256.832031 93.46875 L 365.34375 137.507812 C 365.519531 137.582031 365.667969 137.730469 365.742188 137.90625 C 365.820312 138.082031 365.820312 138.308594 365.742188 138.484375 L 311.414062 272.34375 C 311.289062 272.644531 311.011719 272.820312 310.710938 272.820312 Z M 203.199219 227.609375 L 310.308594 271.09375 L 364.066406 138.632812 L 256.957031 95.148438 Z M 203.199219 227.609375 " fill-opacity="1" fill-rule="nonzero"/><path fill="#00b5a7" d="M 263.371094 107.839844 L 303.382812 124.085938 L 285.035156 169.273438 L 245.023438 153.027344 Z M 263.371094 107.839844 " fill-opacity="1" fill-rule="nonzero"/><path fill="#ffeee9" d="M 276.136719 133.800781 C 284.097656 137.03125 287.945312 146.136719 284.710938 154.097656 L 281.214844 162.707031 L 252.34375 150.984375 L 255.839844 142.375 C 259.074219 134.414062 268.175781 130.566406 276.136719 133.800781 Z M 276.136719 133.800781 " fill-opacity="1" fill-rule="nonzero"/><path fill="#ffeee9" d="M 287.113281 128.3125 C 287.113281 128.886719 287.058594 129.453125 286.949219 130.015625 C 286.835938 130.574219 286.671875 131.121094 286.453125 131.648438 C 286.230469 132.179688 285.964844 132.679688 285.644531 133.15625 C 285.328125 133.632812 284.964844 134.074219 284.5625 134.476562 C 284.15625 134.882812 283.714844 135.242188 283.242188 135.5625 C 282.765625 135.878906 282.261719 136.148438 281.734375 136.367188 C 281.203125 136.585938 280.660156 136.75 280.097656 136.863281 C 279.535156 136.972656 278.96875 137.03125 278.398438 137.03125 C 277.824219 137.03125 277.257812 136.972656 276.695312 136.863281 C 276.136719 136.75 275.589844 136.585938 275.0625 136.367188 C 274.53125 136.148438 274.03125 135.878906 273.554688 135.5625 C 273.078125 135.242188 272.640625 134.882812 272.234375 134.476562 C 271.828125 134.074219 271.46875 133.632812 271.148438 133.15625 C 270.832031 132.679688 270.5625 132.179688 270.34375 131.648438 C 270.125 131.121094 269.960938 130.574219 269.847656 130.015625 C 269.738281 129.453125 269.679688 128.886719 269.679688 128.3125 C 269.679688 127.742188 269.738281 127.175781 269.847656 126.613281 C 269.960938 126.050781 270.125 125.507812 270.34375 124.976562 C 270.5625 124.449219 270.832031 123.945312 271.148438 123.46875 C 271.46875 122.996094 271.828125 122.554688 272.234375 122.148438 C 272.640625 121.746094 273.078125 121.382812 273.554688 121.066406 C 274.03125 120.746094 274.53125 120.480469 275.0625 120.261719 C 275.589844 120.039062 276.136719 119.875 276.695312 119.765625 C 277.257812 119.652344 277.824219 119.597656 278.398438 119.597656 C 278.96875 119.597656 279.535156 119.652344 280.097656 119.765625 C 280.660156 119.875 281.203125 120.039062 281.734375 120.261719 C 282.261719 120.480469 282.765625 120.746094 283.242188 121.066406 C 283.714844 121.382812 284.15625 121.746094 284.5625 122.148438 C 284.964844 122.554688 285.328125 122.996094 285.644531 123.46875 C 285.964844 123.945312 286.230469 124.449219 286.453125 124.976562 C 286.671875 125.507812 286.835938 126.050781 286.949219 126.613281 C 287.058594 127.175781 287.113281 127.742188 287.113281 128.3125 Z M 287.113281 128.3125 " fill-opacity="1" fill-rule="nonzero"/><path fill="#5ce1e6" d="M 311.5625 127.433594 L 350.691406 143.324219 L 349.203125 146.992188 L 310.070312 131.101562 Z M 311.5625 127.433594 " fill-opacity="1" fill-rule="nonzero"/><path fill="#5ce1e6" d="M 308.300781 135.394531 L 347.433594 151.28125 L 345.941406 154.949219 L 306.8125 139.0625 Z M 308.300781 135.394531 " fill-opacity="1" fill-rule="nonzero"/><path fill="#5ce1e6" d="M 242.4375 160.664062 L 281.566406 176.550781 L 280.078125 180.21875 L 240.949219 164.328125 Z M 242.4375 160.664062 " fill-opacity="1" fill-rule="nonzero"/><path fill="#5ce1e6" d="M 239.226562 168.632812 L 278.355469 184.519531 L 276.867188 188.1875 L 237.738281 172.296875 Z M 239.226562 168.632812 " fill-opacity="1" fill-rule="nonzero"/><path fill="#5ce1e6" d="M 235.980469 176.621094 L 275.113281 192.511719 L 273.621094 196.179688 L 234.492188 180.289062 Z M 235.980469 176.621094 " fill-opacity="1" fill-rule="nonzero"/><path fill="#5ce1e6" d="M 222.378906 210.101562 L 261.507812 225.988281 L 260.019531 229.65625 L 220.886719 213.765625 Z M 222.378906 210.101562 " fill-opacity="1" fill-rule="nonzero"/><path fill="#5ce1e6" d="M 219.140625 218.066406 L 258.269531 233.957031 L 256.78125 237.625 L 217.652344 221.734375 Z M 219.140625 218.066406 " fill-opacity="1" fill-rule="nonzero"/><path fill="#5ce1e6" d="M 232.738281 184.59375 L 271.867188 200.484375 L 263.253906 221.695312 L 224.125 205.808594 Z M 232.738281 184.59375 " fill-opacity="1" fill-rule="nonzero"/><path fill="#5ce1e6" d="M 305.066406 143.4375 L 344.195312 159.328125 L 304.519531 257.035156 L 265.390625 241.148438 Z M 305.066406 143.4375 " fill-opacity="1" fill-rule="nonzero"/><path fill="#271700" d="M 269.15625 115.738281 C 268.777344 115.738281 268.351562 115.664062 267.953125 115.488281 L 267.101562 115.136719 C 266.074219 114.710938 265.449219 113.984375 265.246094 112.984375 C 265.097656 112.183594 265.246094 111.253906 265.648438 110.203125 L 269.378906 101.035156 C 269.53125 100.660156 269.980469 100.457031 270.355469 100.609375 C 270.734375 100.757812 270.933594 101.210938 270.78125 101.585938 L 267.050781 110.753906 C 266.75 111.503906 266.625 112.183594 266.726562 112.683594 C 266.824219 113.183594 267.125 113.507812 267.675781 113.734375 L 268.527344 114.085938 C 269.203125 114.359375 269.605469 114.1875 269.855469 113.984375 C 270.230469 113.683594 270.609375 113.132812 270.933594 112.332031 L 275.367188 101.4375 C 275.894531 100.132812 275.265625 98.65625 273.964844 98.128906 L 273.738281 98.054688 C 272.4375 97.527344 270.957031 98.15625 270.433594 99.457031 L 270.332031 99.683594 C 270.183594 100.058594 269.730469 100.257812 269.355469 100.109375 C 268.980469 99.957031 268.777344 99.507812 268.929688 99.132812 L 269.03125 98.90625 C 269.855469 96.851562 272.234375 95.851562 274.289062 96.675781 L 274.515625 96.75 C 276.570312 97.578125 277.570312 99.957031 276.746094 102.011719 L 272.3125 112.90625 C 271.886719 113.984375 271.359375 114.738281 270.757812 115.1875 C 270.28125 115.5625 269.730469 115.738281 269.15625 115.738281 Z M 269.15625 115.738281 " fill-opacity="1" fill-rule="nonzero"/><path fill="#ff8782" d="M 328.945312 248.648438 C 328.945312 248.648438 335.484375 244.390625 333.882812 235.070312 C 332.277344 225.777344 331.050781 218.390625 331.050781 218.390625 C 331.050781 218.390625 333.707031 211.300781 333.40625 206.542969 C 333.078125 201.78125 328.722656 200.78125 324.839844 201.730469 C 324.839844 201.730469 321.082031 193.566406 313.84375 200.128906 C 313.84375 200.128906 308.457031 191.988281 302.144531 201.355469 C 302.144531 201.355469 297.210938 192.011719 294.304688 181.265625 C 291.398438 170.519531 285.710938 169.117188 282.554688 173 C 279.398438 176.882812 290.019531 207.46875 290.019531 207.46875 C 290.019531 207.46875 286.363281 219.265625 289.21875 226.804688 C 292.101562 234.34375 307.679688 254.585938 307.679688 254.585938 L 319.328125 291.28125 L 343.675781 284.367188 C 343.675781 284.367188 335.683594 267.636719 328.996094 248.671875 Z M 328.945312 248.648438 " fill-opacity="1" fill-rule="nonzero"/><path fill="#271700" d="M 314.066406 231.488281 C 313.765625 231.488281 313.464844 231.289062 313.390625 230.964844 C 309.785156 216.4375 300.289062 214.105469 300.191406 214.082031 C 299.988281 214.03125 299.839844 213.90625 299.738281 213.730469 C 299.640625 213.554688 299.640625 213.355469 299.714844 213.152344 C 302.417969 206.367188 301.519531 203.558594 300.714844 202.484375 C 299.914062 201.355469 298.613281 201.207031 297.660156 201.28125 C 294.753906 201.480469 292.324219 206.140625 291.648438 207.917969 C 291.523438 208.269531 291.121094 208.445312 290.773438 208.320312 C 290.421875 208.195312 290.246094 207.792969 290.371094 207.441406 C 290.496094 207.140625 293.175781 200.230469 297.558594 199.929688 C 299.414062 199.804688 300.890625 200.429688 301.820312 201.707031 C 303.421875 203.886719 303.222656 207.792969 301.242188 213.003906 C 303.722656 213.855469 311.460938 217.5625 314.71875 230.664062 C 314.820312 231.039062 314.59375 231.414062 314.21875 231.488281 C 314.167969 231.488281 314.117188 231.488281 314.042969 231.488281 Z M 314.066406 231.488281 " fill-opacity="1" fill-rule="nonzero"/><path fill="#271700" d="M 319.777344 216.085938 C 319.730469 216.085938 319.679688 216.085938 319.652344 216.085938 C 316.648438 216.011719 315.121094 212.402344 315.042969 212.253906 C 314.894531 211.902344 315.042969 211.5 315.421875 211.351562 C 315.769531 211.199219 316.171875 211.351562 316.320312 211.726562 C 316.320312 211.75 317.574219 214.65625 319.703125 214.707031 C 319.730469 214.707031 319.777344 214.707031 319.804688 214.707031 C 322.058594 214.707031 324.488281 213.027344 324.890625 209.796875 C 325.140625 207.71875 323.738281 203.007812 323.738281 202.984375 C 323.636719 202.609375 323.835938 202.234375 324.1875 202.132812 C 324.539062 202.03125 324.9375 202.234375 325.039062 202.582031 C 325.089844 202.785156 326.542969 207.59375 326.242188 209.972656 C 325.742188 214.007812 322.660156 216.085938 319.804688 216.085938 Z M 319.777344 216.085938 " fill-opacity="1" fill-rule="nonzero"/><path fill="#271700" d="M 309.734375 215.332031 C 308.757812 215.332031 307.855469 215.109375 307.230469 214.632812 C 304.976562 212.980469 304.171875 209.019531 304.125 208.847656 C 304.046875 208.46875 304.296875 208.121094 304.675781 208.042969 C 305.050781 207.96875 305.402344 208.21875 305.476562 208.59375 C 305.476562 208.621094 306.203125 212.203125 308.03125 213.554688 C 308.859375 214.15625 310.585938 214.132812 312.113281 213.480469 C 312.867188 213.152344 314.617188 212.203125 314.84375 210.375 C 315.269531 206.992188 313.367188 201.304688 313.339844 201.257812 C 313.214844 200.90625 313.417969 200.503906 313.765625 200.378906 C 314.117188 200.253906 314.519531 200.453125 314.644531 200.804688 C 314.71875 201.054688 316.671875 206.84375 316.195312 210.550781 C 315.972656 212.351562 314.667969 213.878906 312.640625 214.757812 C 311.664062 215.183594 310.636719 215.382812 309.710938 215.382812 Z M 309.734375 215.332031 " fill-opacity="1" fill-rule="nonzero"/><path fill="#271700" d="M 327.644531 217.1875 C 327.570312 217.1875 327.519531 217.1875 327.445312 217.1875 C 324.4375 217.035156 323.585938 214.082031 323.5625 213.957031 C 323.460938 213.578125 323.660156 213.203125 324.039062 213.105469 C 324.414062 213.003906 324.789062 213.203125 324.890625 213.578125 C 324.914062 213.679688 325.539062 215.710938 327.519531 215.808594 C 329.597656 215.910156 330.824219 213.480469 330.824219 213.453125 C 331 213.105469 331.402344 212.980469 331.753906 213.152344 C 332.101562 213.328125 332.226562 213.730469 332.054688 214.082031 C 331.976562 214.207031 330.476562 217.1875 327.644531 217.1875 Z M 327.644531 217.1875 " fill-opacity="1" fill-rule="nonzero"/><path fill="#271700" d="M 158.511719 89.6875 C 158.511719 89.6875 187.820312 67.417969 218.605469 90.464844 C 248.390625 112.734375 238.945312 161.175781 247.488281 183.972656 C 256.027344 206.765625 260.964844 226.457031 242.828125 236.824219 C 224.691406 247.195312 152.703125 254.585938 130.933594 227.257812 C 118.761719 211.976562 133.011719 168.992188 133.011719 143.742188 C 133.011719 118.492188 134.039062 95 158.511719 89.710938 Z M 158.511719 89.6875 " fill-opacity="1" fill-rule="nonzero"/><path fill="#ffeee9" d="M 161.84375 230.1875 C 161.84375 230.1875 169.460938 238.753906 222.011719 232.042969 C 241.851562 229.511719 195.234375 307.941406 195.234375 307.941406 L 148.945312 300.175781 L 161.84375 230.210938 Z M 161.84375 230.1875 " fill-opacity="1" fill-rule="nonzero"/><path fill="#ff8782" d="M 284.710938 284.871094 L 267.601562 292.460938 C 265.121094 301.078125 261.414062 307.113281 256.679688 306.6875 C 248.890625 305.960938 242.601562 305.535156 237.117188 305.308594 C 222.589844 305.734375 207.785156 305.9375 197.039062 306.0625 C 196.789062 306.0625 196.5625 306.0625 196.3125 306.085938 C 195.9375 306.085938 195.535156 306.109375 195.160156 306.136719 C 194.632812 306.136719 192.078125 306.136719 188.121094 306.136719 C 187.21875 306.136719 186.394531 306.136719 185.640625 306.136719 C 185.214844 306.136719 184.816406 306.136719 184.4375 306.136719 C 182.585938 306.136719 181.40625 306.136719 181.082031 306.136719 C 180.429688 306.136719 179.832031 306.085938 179.203125 306.0625 C 168.457031 305.960938 153.679688 305.734375 139.125 305.308594 C 133.640625 305.535156 127.351562 305.984375 119.5625 306.6875 C 114.851562 307.113281 111.121094 301.078125 108.640625 292.460938 L 91.480469 284.84375 C 93.886719 272.34375 96.515625 261.046875 99.148438 253.558594 C 102.828125 246.769531 107.488281 241.859375 112.972656 239.105469 C 117.882812 236.625 123.796875 235.222656 129.855469 233.96875 C 132.035156 233.519531 134.214844 233.09375 136.394531 232.640625 C 139.101562 232.089844 141.804688 231.515625 144.386719 230.839844 C 145.539062 230.539062 146.664062 230.210938 147.765625 229.863281 C 150.546875 228.984375 153.179688 227.933594 155.507812 226.605469 C 156.035156 226.304688 156.535156 226.003906 157.035156 225.679688 C 160.167969 223.550781 162.320312 220.46875 163.796875 217.113281 C 163.824219 217.035156 163.875 216.960938 163.898438 216.886719 C 164.75 214.957031 165.351562 212.953125 165.828125 211 C 166.578125 207.792969 166.929688 204.6875 167.054688 202.207031 C 167.230469 199.152344 167.054688 197.074219 167.054688 197.074219 L 167.207031 197.074219 C 167.207031 197.023438 167.207031 196.972656 167.207031 196.972656 L 182.085938 197.648438 L 184.164062 197.722656 L 188.144531 197.875 L 189.925781 197.800781 L 194.183594 197.625 L 209.0625 196.949219 C 209.0625 196.949219 209.0625 196.996094 209.0625 197.046875 L 209.210938 197.046875 C 209.210938 197.046875 209.113281 198.398438 209.164062 200.554688 C 209.238281 203.183594 209.511719 206.992188 210.441406 210.949219 C 210.890625 212.855469 211.492188 214.832031 212.292969 216.710938 C 212.34375 216.835938 212.394531 216.960938 212.445312 217.0625 C 213.921875 220.417969 216.074219 223.5 219.207031 225.628906 C 219.683594 225.953125 220.210938 226.253906 220.734375 226.554688 C 222.988281 227.832031 225.519531 228.859375 228.199219 229.738281 C 229.402344 230.113281 230.605469 230.464844 231.855469 230.789062 C 236.515625 232.015625 241.5 232.894531 246.386719 233.894531 C 246.5625 233.917969 246.710938 233.96875 246.886719 233.996094 C 252.773438 235.222656 258.507812 236.625 263.292969 239.03125 C 268.679688 241.734375 273.261719 246.519531 276.921875 253.132812 C 279.601562 260.621094 282.253906 272.09375 284.710938 284.792969 Z M 284.710938 284.871094 " fill-opacity="1" fill-rule="nonzero"/><path fill="#ff8782" d="M 231.179688 139.734375 C 231.179688 139.035156 231.179688 138.332031 231.179688 137.632812 C 230.65625 112.632812 210.441406 93.042969 186.015625 93.894531 C 161.59375 94.722656 142.230469 115.664062 142.757812 140.664062 C 142.757812 141.390625 142.808594 142.140625 142.859375 142.867188 C 131.136719 141.363281 125.097656 148.828125 129.683594 161.601562 C 134.242188 174.304688 142.65625 180.265625 148.820312 176.40625 C 154.078125 193.113281 170.1875 210 188.171875 210.023438 C 206.132812 208.796875 221.488281 190.835938 226.046875 173.800781 C 232.359375 177.160156 240.472656 170.621094 244.457031 157.671875 C 248.4375 144.84375 242.402344 137.832031 231.15625 139.761719 Z M 231.179688 139.734375 " fill-opacity="1" fill-rule="nonzero"/><path fill="#271700" d="M 188.171875 210.722656 C 181.40625 210.722656 174.445312 208.34375 168.03125 203.859375 C 167.679688 203.609375 167.605469 203.160156 167.855469 202.808594 C 168.082031 202.457031 168.558594 202.382812 168.910156 202.632812 C 175.070312 206.941406 181.707031 209.222656 188.144531 209.222656 C 194.835938 208.746094 201.621094 205.839844 207.757812 200.78125 C 208.085938 200.503906 208.5625 200.554688 208.8125 200.878906 C 209.085938 201.207031 209.039062 201.683594 208.710938 201.933594 C 202.300781 207.191406 195.234375 210.222656 188.222656 210.722656 C 188.222656 210.722656 188.195312 210.722656 188.171875 210.722656 Z M 188.171875 210.722656 " fill-opacity="1" fill-rule="nonzero"/><path fill="#271700" d="M 191.601562 168.316406 C 191.601562 168.316406 187.546875 170.496094 183.664062 168.792969 C 179.78125 167.089844 181.582031 173.402344 186.441406 173.675781 C 191.300781 173.953125 193.730469 168.566406 191.601562 168.292969 Z M 191.601562 168.316406 " fill-opacity="1" fill-rule="nonzero"/><path fill="#271700" d="M 156.285156 141.589844 C 156.285156 141.589844 160.742188 140.261719 166.101562 140.988281 C 171.3125 141.6875 168.683594 135.277344 162.671875 134.953125 C 156.660156 134.625 153.652344 141.261719 156.285156 141.589844 Z M 156.285156 141.589844 " fill-opacity="1" fill-rule="nonzero"/><path fill="#271700" d="M 214.371094 141.589844 C 214.371094 141.589844 209.914062 140.261719 204.554688 140.988281 C 199.34375 141.6875 201.972656 135.277344 207.984375 134.953125 C 213.996094 134.625 217.003906 141.261719 214.371094 141.589844 Z M 214.371094 141.589844 " fill-opacity="1" fill-rule="nonzero"/><path fill="#271700" d="M 189.699219 196.523438 C 189.699219 196.523438 187.421875 197.75 185.242188 196.796875 C 183.0625 195.84375 184.0625 199.402344 186.820312 199.550781 C 189.550781 199.703125 190.925781 196.671875 189.722656 196.523438 Z M 189.699219 196.523438 " fill-opacity="1" fill-rule="nonzero"/><path fill="#271700" d="M 174.996094 180.691406 C 179.929688 182.921875 188.570312 185.074219 198.96875 180.214844 C 199.820312 179.8125 200.644531 180.742188 199.996094 181.367188 C 195.308594 185.949219 185.367188 192.613281 173.992188 181.867188 C 173.34375 181.265625 174.144531 180.316406 174.96875 180.691406 Z M 174.996094 180.691406 " fill-opacity="1" fill-rule="nonzero"/><path fill="#271700" d="M 162.519531 149.253906 C 165.453125 149.453125 167.632812 152.410156 167.40625 155.867188 C 167.179688 159.324219 164.601562 161.953125 161.667969 161.753906 C 158.738281 161.554688 156.558594 158.597656 156.785156 155.140625 C 157.011719 151.683594 159.589844 149.054688 162.519531 149.253906 Z M 162.519531 149.253906 " fill-opacity="1" fill-rule="nonzero"/><path fill="#271700" d="M 228.023438 160.402344 C 227.949219 160.402344 227.898438 160.402344 227.824219 160.375 C 227.421875 160.277344 227.199219 159.851562 227.296875 159.449219 C 227.375 159.199219 229.101562 153.011719 233.511719 150.507812 C 235.4375 149.40625 237.566406 149.179688 239.847656 149.804688 C 240.25 149.90625 240.472656 150.332031 240.375 150.730469 C 240.273438 151.132812 239.847656 151.359375 239.445312 151.257812 C 237.566406 150.730469 235.816406 150.933594 234.261719 151.808594 C 230.378906 154.011719 228.777344 159.800781 228.75 159.851562 C 228.652344 160.175781 228.351562 160.402344 228.023438 160.402344 Z M 228.023438 160.402344 " fill-opacity="1" fill-rule="nonzero"/><path fill="#271700" d="M 235.289062 159.398438 C 234.886719 159.398438 234.5625 159.097656 234.539062 158.699219 C 234.238281 154.113281 231.679688 153.5625 231.65625 153.5625 C 231.253906 153.488281 230.980469 153.085938 231.054688 152.6875 C 231.128906 152.285156 231.53125 152.007812 231.933594 152.085938 C 232.082031 152.109375 235.640625 152.859375 236.039062 158.597656 C 236.066406 159.023438 235.765625 159.375 235.339844 159.398438 C 235.339844 159.398438 235.3125 159.398438 235.289062 159.398438 Z M 235.289062 159.398438 " fill-opacity="1" fill-rule="nonzero"/><path fill="#271700" d="M 144.535156 163.230469 C 144.210938 163.230469 143.910156 163.007812 143.808594 162.679688 C 143.808594 162.605469 142.15625 156.84375 138.300781 154.640625 C 136.746094 153.761719 134.992188 153.5625 133.113281 154.089844 C 132.714844 154.1875 132.3125 153.964844 132.1875 153.5625 C 132.085938 153.160156 132.3125 152.761719 132.714844 152.636719 C 134.992188 152.007812 137.121094 152.234375 139.050781 153.335938 C 143.457031 155.867188 145.1875 162.027344 145.261719 162.28125 C 145.363281 162.679688 145.136719 163.082031 144.738281 163.207031 C 144.660156 163.207031 144.609375 163.230469 144.535156 163.230469 Z M 144.535156 163.230469 " fill-opacity="1" fill-rule="nonzero"/><path fill="#271700" d="M 137.273438 162.230469 C 137.273438 162.230469 137.246094 162.230469 137.222656 162.230469 C 136.796875 162.203125 136.496094 161.855469 136.519531 161.429688 C 136.921875 155.691406 140.476562 154.941406 140.628906 154.914062 C 141.027344 154.839844 141.429688 155.089844 141.503906 155.515625 C 141.582031 155.917969 141.328125 156.316406 140.929688 156.394531 C 140.804688 156.417969 138.347656 157.042969 138.023438 161.527344 C 138 161.929688 137.671875 162.230469 137.273438 162.230469 Z M 137.273438 162.230469 " fill-opacity="1" fill-rule="nonzero"/><path fill="#271700" d="M 150.449219 120.324219 C 150.449219 120.324219 157.085938 135.550781 172.242188 139.609375 C 182.660156 142.390625 177.976562 133.375 178.453125 134.125 C 178.929688 134.875 187.996094 138.183594 195.710938 136.605469 C 204.101562 134.902344 204.101562 131.996094 204.101562 131.996094 C 204.101562 131.996094 214.398438 143.492188 228.050781 141.5625 C 232.582031 140.914062 232.332031 136.054688 232.332031 136.054688 C 232.332031 136.054688 234.136719 106.519531 211.089844 97.203125 C 188.046875 87.882812 144.4375 88.835938 150.472656 120.324219 Z M 150.449219 120.324219 " fill-opacity="1" fill-rule="nonzero"/><path fill="#271700" d="M 142.859375 142.839844 C 142.859375 142.839844 145.636719 153.238281 148.84375 153.238281 C 152.050781 153.238281 154.054688 109.175781 154.054688 109.175781 L 149.171875 106.09375 C 149.171875 106.09375 133.765625 124.53125 142.859375 142.839844 Z M 142.859375 142.839844 " fill-opacity="1" fill-rule="nonzero"/><path fill="#271700" d="M 216.5 154.890625 C 215.476562 154.714844 214.398438 154.613281 213.296875 154.566406 C 208.738281 154.390625 204.527344 155.515625 201.195312 157.496094 L 201.195312 157.296875 C 201.273438 152.410156 204.828125 148.578125 209.1875 148.726562 C 212.59375 148.851562 215.476562 151.410156 216.5 154.890625 Z M 216.5 154.890625 " fill-opacity="1" fill-rule="nonzero"/><path fill="#ffeee9" d="M 162.09375 233.96875 C 162.09375 233.96875 180.882812 247.171875 212.621094 233.96875 C 244.355469 220.769531 188.121094 306.109375 188.121094 306.109375 C 188.121094 306.109375 171.589844 269.816406 162.09375 233.96875 Z M 162.09375 233.96875 " fill-opacity="1" fill-rule="nonzero"/><path fill="#00b5a7" d="M 302.546875 360.617188 L 80.785156 360.617188 C 80.109375 360.617188 85.042969 318.410156 91.507812 284.84375 C 93.910156 272.34375 96.542969 261.046875 99.171875 253.558594 C 100.324219 250.328125 101.453125 247.796875 102.578125 246.195312 C 108.066406 238.402344 118.8125 231.992188 130.660156 226.882812 C 141.90625 222.046875 154.179688 218.390625 163.875 215.882812 C 163.875 216.210938 163.875 216.535156 163.925781 216.886719 C 164.148438 220.917969 165.101562 226.28125 166.554688 232.390625 C 167.480469 236.300781 168.582031 240.507812 169.808594 244.839844 C 175.898438 266.257812 184.914062 291.03125 188.121094 299.648438 C 191.277344 291.105469 200.167969 266.734375 206.257812 245.46875 C 207.460938 241.285156 208.535156 237.226562 209.464844 233.445312 C 211.066406 226.832031 212.144531 221.019531 212.34375 216.761719 C 212.34375 216.460938 212.367188 216.183594 212.367188 215.882812 C 223.714844 218.816406 238.570312 223.300781 251.21875 229.460938 C 260.761719 234.09375 269.054688 239.65625 273.664062 246.195312 C 274.742188 247.722656 275.84375 250.125 276.945312 253.207031 C 279.625 260.695312 284.9375 275.550781 287.390625 288.25 C 293.851562 321.816406 303.246094 360.617188 302.59375 360.617188 Z M 302.546875 360.617188 " fill-opacity="1" fill-rule="nonzero"/><path fill="#271700" d="M 183.261719 359.390625 C 182.835938 359.390625 182.511719 359.066406 182.511719 358.640625 L 182.511719 311.621094 C 182.511719 311.546875 182.511719 311.445312 182.558594 311.371094 C 182.960938 310.269531 183.636719 308.765625 184.863281 306.0625 C 185.289062 305.160156 185.765625 304.082031 186.316406 302.855469 C 186.492188 302.480469 186.945312 302.304688 187.320312 302.480469 C 187.695312 302.652344 187.871094 303.105469 187.695312 303.480469 C 187.144531 304.707031 186.667969 305.761719 186.242188 306.6875 C 185.066406 309.265625 184.414062 310.71875 184.039062 311.746094 L 184.039062 358.640625 C 184.039062 359.066406 183.710938 359.390625 183.285156 359.390625 Z M 183.261719 359.390625 " fill-opacity="1" fill-rule="nonzero"/><path fill="#271700" d="M 193.457031 312.972656 C 193.457031 313.34375 193.386719 313.699219 193.246094 314.039062 C 193.105469 314.378906 192.902344 314.679688 192.640625 314.941406 C 192.382812 315.203125 192.082031 315.402344 191.742188 315.542969 C 191.398438 315.683594 191.046875 315.753906 190.675781 315.753906 C 190.308594 315.753906 189.953125 315.683594 189.613281 315.542969 C 189.273438 315.402344 188.972656 315.203125 188.710938 314.941406 C 188.449219 314.679688 188.25 314.378906 188.109375 314.039062 C 187.964844 313.699219 187.894531 313.34375 187.894531 312.972656 C 187.894531 312.605469 187.964844 312.25 188.109375 311.910156 C 188.25 311.570312 188.449219 311.269531 188.710938 311.007812 C 188.972656 310.746094 189.273438 310.546875 189.613281 310.40625 C 189.953125 310.265625 190.308594 310.195312 190.675781 310.195312 C 191.046875 310.195312 191.398438 310.265625 191.742188 310.40625 C 192.082031 310.546875 192.382812 310.746094 192.640625 311.007812 C 192.902344 311.269531 193.105469 311.570312 193.246094 311.910156 C 193.386719 312.25 193.457031 312.605469 193.457031 312.972656 Z M 193.457031 312.972656 " fill-opacity="1" fill-rule="nonzero"/><path fill="#271700" d="M 193.457031 344.261719 C 193.457031 344.628906 193.386719 344.984375 193.246094 345.324219 C 193.105469 345.664062 192.902344 345.964844 192.640625 346.226562 C 192.382812 346.488281 192.082031 346.6875 191.742188 346.828125 C 191.398438 346.96875 191.046875 347.042969 190.675781 347.042969 C 190.308594 347.042969 189.953125 346.96875 189.613281 346.828125 C 189.273438 346.6875 188.972656 346.488281 188.710938 346.226562 C 188.449219 345.964844 188.25 345.664062 188.109375 345.324219 C 187.964844 344.984375 187.894531 344.628906 187.894531 344.261719 C 187.894531 343.890625 187.964844 343.539062 188.109375 343.195312 C 188.25 342.855469 188.449219 342.554688 188.710938 342.292969 C 188.972656 342.035156 189.273438 341.832031 189.613281 341.691406 C 189.953125 341.550781 190.308594 341.480469 190.675781 341.480469 C 191.046875 341.480469 191.398438 341.550781 191.742188 341.691406 C 192.082031 341.832031 192.382812 342.035156 192.640625 342.292969 C 192.902344 342.554688 193.105469 342.855469 193.246094 343.195312 C 193.386719 343.539062 193.457031 343.890625 193.457031 344.261719 Z M 193.457031 344.261719 " fill-opacity="1" fill-rule="nonzero"/><path fill="#271700" d="M 185.140625 302.480469 C 184.914062 302.480469 184.714844 302.378906 184.5625 302.203125 C 184.464844 302.078125 174.644531 290.054688 165.101562 277.679688 C 145.5625 252.332031 146.238281 250.25 146.515625 249.351562 C 148.167969 244.066406 152.125 240.15625 153.929688 238.578125 C 151.976562 237.453125 147.84375 234.597656 147.117188 230.261719 C 146.566406 227.007812 148.019531 223.625 151.5 220.269531 C 151.800781 219.96875 152.277344 219.992188 152.550781 220.269531 C 152.851562 220.570312 152.828125 221.042969 152.550781 221.320312 C 149.46875 224.324219 148.144531 227.230469 148.617188 229.988281 C 149.445312 234.820312 155.558594 237.726562 155.632812 237.753906 C 155.882812 237.851562 156.035156 238.101562 156.058594 238.355469 C 156.082031 238.605469 155.984375 238.878906 155.757812 239.03125 C 155.707031 239.078125 149.945312 243.488281 147.96875 249.777344 C 147.867188 250.378906 148.917969 254.160156 166.503906 276.980469 C 175.972656 289.253906 185.667969 301.101562 185.742188 301.226562 C 185.992188 301.550781 185.96875 302.027344 185.640625 302.277344 C 185.492188 302.402344 185.339844 302.453125 185.164062 302.453125 Z M 185.140625 302.480469 " fill-opacity="1" fill-rule="nonzero"/><path fill="#271700" d="M 190.851562 302.480469 C 190.675781 302.480469 190.527344 302.429688 190.375 302.304688 C 190.050781 302.054688 190 301.578125 190.277344 301.25 C 190.375 301.125 200.070312 289.277344 209.511719 277.003906 C 227.097656 254.183594 228.148438 250.402344 228.050781 249.777344 C 226.09375 243.488281 220.335938 239.078125 220.257812 239.054688 C 220.058594 238.90625 219.933594 238.628906 219.957031 238.378906 C 219.984375 238.128906 220.160156 237.878906 220.382812 237.777344 C 220.433594 237.753906 226.570312 234.847656 227.398438 230.011719 C 227.875 227.257812 226.546875 224.351562 223.464844 221.34375 C 223.164062 221.042969 223.164062 220.570312 223.464844 220.292969 C 223.765625 219.992188 224.242188 219.992188 224.515625 220.292969 C 227.972656 223.675781 229.453125 227.03125 228.902344 230.289062 C 228.148438 234.621094 224.042969 237.476562 222.085938 238.605469 C 223.890625 240.15625 227.875 244.089844 229.503906 249.375 C 229.777344 250.277344 230.429688 252.355469 210.914062 277.707031 C 201.371094 290.078125 191.554688 302.101562 191.453125 302.226562 C 191.300781 302.402344 191.078125 302.503906 190.875 302.503906 Z M 190.851562 302.480469 " fill-opacity="1" fill-rule="nonzero"/><path fill="#271700" d="M 121.867188 360.117188 C 121.515625 360.117188 121.191406 359.867188 121.140625 359.515625 C 121.015625 358.914062 109.191406 299.773438 109.191406 255.585938 C 109.191406 211.402344 109.515625 254.835938 109.945312 254.835938 C 110.371094 254.835938 110.695312 255.160156 110.695312 255.585938 C 110.695312 299.625 122.492188 358.640625 122.617188 359.214844 C 122.691406 359.617188 122.441406 360.015625 122.042969 360.089844 C 121.992188 360.089844 121.941406 360.089844 121.890625 360.089844 Z M 121.867188 360.117188 " fill-opacity="1" fill-rule="nonzero"/><path fill="#271700" d="M 253.296875 360.117188 C 253.25 360.117188 253.199219 360.117188 253.148438 360.117188 C 252.746094 360.042969 252.472656 359.640625 252.574219 359.238281 C 252.699219 358.640625 264.496094 299.648438 264.496094 255.613281 C 264.496094 211.574219 264.820312 254.859375 265.246094 254.859375 C 265.671875 254.859375 266 255.1875 266 255.613281 C 266 299.796875 254.152344 358.9375 254.050781 359.539062 C 253.976562 359.890625 253.675781 360.140625 253.324219 360.140625 Z M 253.296875 360.117188 " fill-opacity="1" fill-rule="nonzero"/><path fill="#ff8782" d="M 126.199219 226.15625 C 126.199219 226.15625 120.164062 243.5625 97.96875 252.882812 C 89.777344 267.9375 82.867188 283.941406 82.867188 283.941406 L 62.351562 267.636719 L 80.585938 240.308594 C 80.585938 240.308594 76.203125 228.234375 76.828125 223.375 C 76.855469 223.175781 76.878906 223 76.929688 222.824219 C 77.929688 218.664062 83.464844 220.21875 83.464844 220.21875 C 83.464844 220.21875 81.539062 214.230469 84.394531 211.777344 C 87.273438 209.320312 92.109375 211.851562 92.109375 211.851562 C 92.109375 211.851562 90.179688 203.085938 93.960938 201.382812 C 97.746094 199.652344 100.351562 202.410156 100.351562 202.410156 C 100.351562 202.410156 99.898438 195.195312 105.082031 194.71875 C 106.6875 194.566406 108.566406 196.320312 110.394531 198.828125 C 114.476562 204.386719 118.335938 213.628906 118.335938 213.628906 C 118.335938 213.628906 120.964844 212.753906 125.324219 208.21875 C 129.707031 203.6875 138.875 210.851562 126.199219 226.128906 Z M 126.199219 226.15625 " fill-opacity="1" fill-rule="nonzero"/><path fill="#00b5a7" d="M 115.539062 195.730469 L 123.480469 201.628906 L 86.160156 251.886719 L 78.214844 245.984375 Z M 115.539062 195.730469 " fill-opacity="1" fill-rule="nonzero"/><path fill="#00b5a7" d="M 130.332031 189.40625 L 122.117188 200.480469 L 117.257812 196.871094 L 125.472656 185.800781 C 126.476562 184.449219 128.355469 184.171875 129.707031 185.175781 C 130.382812 185.675781 130.785156 186.402344 130.910156 187.152344 C 131.035156 187.929688 130.835938 188.730469 130.359375 189.40625 Z M 130.332031 189.40625 " fill-opacity="1" fill-rule="nonzero"/><path fill="#271700" d="M 86.371094 252.457031 C 86.246094 252.457031 86.148438 252.40625 86.046875 252.355469 L 78.105469 246.46875 C 77.855469 246.292969 77.804688 245.945312 77.980469 245.691406 L 115.253906 195.417969 C 115.328125 195.292969 115.480469 195.21875 115.605469 195.195312 C 115.753906 195.195312 115.90625 195.195312 116.003906 195.292969 L 123.945312 201.179688 C 124.195312 201.355469 124.246094 201.707031 124.070312 201.957031 L 86.796875 252.230469 C 86.722656 252.355469 86.574219 252.429688 86.449219 252.457031 C 86.421875 252.457031 86.398438 252.457031 86.371094 252.457031 Z M 79.207031 245.894531 L 86.273438 251.128906 L 122.894531 201.730469 L 115.828125 196.496094 Z M 79.207031 245.894531 " fill-opacity="1" fill-rule="nonzero"/><path fill="#271700" d="M 122.117188 200.929688 C 122.015625 200.929688 121.917969 200.90625 121.839844 200.832031 L 116.980469 197.222656 C 116.882812 197.148438 116.832031 197.046875 116.808594 196.921875 C 116.808594 196.796875 116.808594 196.671875 116.882812 196.570312 L 125.097656 185.5 C 125.648438 184.75 126.476562 184.273438 127.378906 184.121094 C 128.304688 183.996094 129.207031 184.222656 129.957031 184.773438 C 130.710938 185.324219 131.183594 186.125 131.335938 187.054688 C 131.460938 187.980469 131.234375 188.882812 130.683594 189.632812 L 122.46875 200.703125 C 122.367188 200.832031 122.242188 200.878906 122.09375 200.878906 Z M 117.910156 196.796875 L 122.042969 199.851562 L 129.984375 189.15625 C 130.382812 188.605469 130.558594 187.929688 130.457031 187.253906 C 130.359375 186.578125 130.007812 185.976562 129.457031 185.574219 C 128.90625 185.175781 128.230469 185 127.554688 185.097656 C 126.875 185.199219 126.273438 185.550781 125.875 186.101562 L 117.933594 196.796875 Z M 130.332031 189.40625 Z M 130.332031 189.40625 " fill-opacity="1" fill-rule="nonzero"/><path fill="#00b5a7" d="M 147.140625 127.0625 C 127.753906 126.109375 111.246094 141.0625 110.292969 160.449219 C 109.34375 179.839844 124.296875 196.347656 143.683594 197.296875 C 163.074219 198.25 179.554688 183.296875 180.507812 163.90625 C 181.457031 144.519531 166.503906 128.039062 147.117188 127.085938 Z M 144.058594 189.808594 C 128.804688 189.058594 117.03125 176.082031 117.785156 160.828125 C 118.535156 145.570312 131.511719 133.800781 146.765625 134.550781 C 162.019531 135.300781 173.792969 148.277344 173.042969 163.53125 C 172.289062 178.785156 159.316406 190.558594 144.058594 189.808594 Z M 144.058594 189.808594 " fill-opacity="1" fill-rule="nonzero"/><path fill="#271700" d="M 145.460938 198.074219 C 144.863281 198.074219 144.261719 198.074219 143.660156 198.023438 C 123.894531 197.046875 108.589844 180.191406 109.566406 160.402344 C 110.042969 150.832031 114.203125 142.015625 121.316406 135.550781 C 128.429688 129.089844 137.597656 125.832031 147.191406 126.285156 C 156.761719 126.761719 165.578125 130.917969 172.039062 138.03125 C 178.476562 145.144531 181.757812 154.3125 181.308594 163.90625 C 180.855469 173.5 176.675781 182.320312 169.558594 188.757812 C 162.898438 194.792969 154.40625 198.050781 145.488281 198.050781 Z M 145.363281 127.761719 C 136.796875 127.761719 128.679688 130.894531 122.292969 136.679688 C 115.480469 142.839844 111.496094 151.308594 111.046875 160.5 C 110.117188 179.464844 124.773438 195.621094 143.734375 196.546875 C 152.925781 196.996094 161.71875 193.839844 168.53125 187.679688 C 175.347656 181.515625 179.328125 173.050781 179.78125 163.859375 C 180.230469 154.664062 177.074219 145.871094 170.914062 139.058594 C 164.75 132.246094 156.285156 128.261719 147.089844 127.8125 C 146.515625 127.789062 145.9375 127.761719 145.363281 127.761719 Z M 145.4375 190.585938 C 144.960938 190.585938 144.511719 190.585938 144.035156 190.558594 C 128.378906 189.785156 116.28125 176.433594 117.058594 160.800781 C 117.433594 153.210938 120.738281 146.25 126.351562 141.136719 C 131.960938 136.027344 139.25 133.449219 146.816406 133.800781 C 162.472656 134.574219 174.570312 147.925781 173.792969 163.558594 C 173.042969 178.738281 160.46875 190.585938 145.4375 190.585938 Z M 144.085938 189.058594 C 158.914062 189.785156 171.5625 178.3125 172.289062 163.480469 C 173.015625 148.652344 161.542969 136.003906 146.714844 135.277344 C 139.527344 134.925781 132.636719 137.382812 127.300781 142.214844 C 121.96875 147.050781 118.835938 153.664062 118.484375 160.851562 C 117.757812 175.679688 129.230469 188.332031 144.058594 189.058594 Z M 144.085938 189.058594 " fill-opacity="1" fill-rule="nonzero"/><path fill="#271700" d="M 145.4375 190.585938 C 144.960938 190.585938 144.484375 190.585938 144.011719 190.558594 C 136.421875 190.183594 129.457031 186.878906 124.347656 181.265625 C 119.261719 175.65625 116.65625 168.367188 117.007812 160.800781 C 117.785156 145.144531 131.136719 133.046875 146.765625 133.824219 C 162.421875 134.601562 174.519531 147.953125 173.742188 163.582031 C 173.367188 171.171875 170.0625 178.136719 164.449219 183.246094 C 159.191406 188.03125 152.476562 190.609375 145.414062 190.609375 Z M 145.386719 135.25 C 131.136719 135.25 119.210938 146.472656 118.511719 160.851562 C 118.160156 168.039062 120.613281 174.929688 125.449219 180.238281 C 130.28125 185.574219 136.894531 188.707031 144.085938 189.058594 C 151.273438 189.40625 158.164062 186.953125 163.472656 182.117188 C 168.808594 177.285156 171.941406 170.671875 172.289062 163.480469 C 173.015625 148.652344 161.542969 136.003906 146.714844 135.277344 C 146.265625 135.277344 145.8125 135.25 145.386719 135.25 Z M 145.386719 135.25 " fill-opacity="1" fill-rule="nonzero"/><path fill="#ffeee9" d="M 134.96875 141.664062 C 134.691406 141.664062 134.417969 141.515625 134.289062 141.238281 C 134.117188 140.863281 134.265625 140.410156 134.640625 140.238281 C 135.820312 139.660156 137.070312 139.160156 138.324219 138.785156 C 138.726562 138.660156 139.152344 138.882812 139.25 139.285156 C 139.375 139.683594 139.152344 140.113281 138.75 140.210938 C 137.574219 140.5625 136.394531 141.039062 135.292969 141.589844 C 135.191406 141.640625 135.066406 141.664062 134.96875 141.664062 Z M 134.96875 141.664062 " fill-opacity="1" fill-rule="nonzero"/><path fill="#ffeee9" d="M 123.371094 154.238281 C 123.269531 154.238281 123.195312 154.238281 123.09375 154.1875 C 122.71875 154.039062 122.519531 153.585938 122.667969 153.210938 C 124.144531 149.480469 126.550781 146.148438 129.605469 143.542969 C 129.933594 143.265625 130.410156 143.316406 130.660156 143.617188 C 130.933594 143.945312 130.882812 144.417969 130.582031 144.671875 C 127.703125 147.125 125.449219 150.257812 124.070312 153.738281 C 123.945312 154.039062 123.671875 154.214844 123.371094 154.214844 Z M 123.371094 154.238281 " fill-opacity="1" fill-rule="nonzero"/><path fill="#ffeee9" d="M 161.09375 180.691406 C 160.894531 180.691406 160.667969 180.617188 160.542969 180.441406 C 160.265625 180.140625 160.292969 179.664062 160.617188 179.386719 C 162.671875 177.585938 164.351562 175.457031 165.652344 173.050781 C 165.851562 172.675781 166.304688 172.550781 166.679688 172.75 C 167.054688 172.949219 167.179688 173.402344 166.980469 173.777344 C 165.601562 176.332031 163.796875 178.613281 161.621094 180.539062 C 161.46875 180.664062 161.292969 180.742188 161.117188 180.742188 Z M 161.09375 180.691406 " fill-opacity="1" fill-rule="nonzero"/><path fill="#ff8782" d="M 116.53125 217.539062 C 113.425781 222.097656 109.242188 219.367188 109.242188 219.367188 C 109.242188 219.367188 114.351562 226.804688 109.667969 229.234375 C 105.109375 231.617188 102.355469 226.804688 102.226562 226.582031 C 102.304688 226.832031 103.679688 232.691406 100.449219 234.445312 C 97.144531 236.25 93.386719 232.46875 93.386719 232.46875 C 93.386719 232.46875 95.039062 236.574219 90.253906 236.875 C 85.445312 237.175781 78.007812 224.976562 78.007812 224.976562 C 77.605469 224.402344 77.253906 223.648438 76.902344 222.824219 C 77.90625 218.664062 83.441406 220.21875 83.441406 220.21875 C 83.441406 220.21875 81.511719 214.230469 84.367188 211.777344 C 87.25 209.320312 92.082031 211.851562 92.082031 211.851562 C 92.082031 211.851562 90.15625 203.085938 93.9375 201.382812 C 97.71875 199.652344 100.324219 202.410156 100.324219 202.410156 C 100.324219 202.410156 99.875 195.195312 105.058594 194.71875 C 106.660156 194.566406 108.539062 196.320312 110.371094 198.828125 C 113.425781 204.0625 118.761719 214.207031 116.507812 217.511719 Z M 116.53125 217.539062 " fill-opacity="1" fill-rule="nonzero"/><path fill="#271700" d="M 90.105469 237.476562 C 85.121094 237.476562 78.332031 226.628906 77.53125 225.304688 C 77.355469 225.027344 77.179688 224.75 77.003906 224.425781 C 76.855469 224.152344 76.953125 223.773438 77.253906 223.625 C 77.53125 223.472656 77.90625 223.574219 78.054688 223.875 C 78.207031 224.175781 78.355469 224.425781 78.53125 224.652344 C 80.5625 227.957031 86.597656 236.5 90.253906 236.273438 C 91.53125 236.199219 92.410156 235.824219 92.808594 235.171875 C 93.460938 234.144531 92.886719 232.691406 92.886719 232.667969 C 92.785156 232.417969 92.886719 232.117188 93.109375 231.964844 C 93.335938 231.816406 93.660156 231.839844 93.835938 232.042969 C 93.863281 232.066406 97.320312 235.472656 100.199219 233.917969 C 103.003906 232.390625 101.726562 226.929688 101.675781 226.707031 C 101.601562 226.429688 101.753906 226.128906 102.027344 226.03125 C 102.304688 225.929688 102.605469 226.03125 102.753906 226.28125 C 102.855469 226.457031 105.335938 230.839844 109.390625 228.710938 C 110.21875 228.285156 110.71875 227.65625 110.945312 226.804688 C 111.648438 223.949219 108.792969 219.71875 108.765625 219.691406 C 108.617188 219.464844 108.640625 219.140625 108.839844 218.941406 C 109.042969 218.738281 109.34375 218.714844 109.59375 218.867188 C 109.742188 218.964844 113.351562 221.195312 116.082031 217.1875 C 118.007812 214.355469 112.273438 204.539062 109.519531 199.828125 L 109.015625 198.976562 C 108.839844 198.699219 108.941406 198.324219 109.21875 198.175781 C 109.492188 198 109.867188 198.101562 110.019531 198.375 L 110.519531 199.226562 C 115.003906 206.890625 119.210938 214.65625 117.058594 217.839844 C 114.953125 220.917969 112.347656 220.945312 110.667969 220.519531 C 111.546875 222.171875 112.671875 224.878906 112.121094 227.054688 C 111.820312 228.234375 111.121094 229.136719 109.992188 229.710938 C 106.886719 231.339844 104.558594 229.988281 103.207031 228.632812 C 103.355469 230.714844 103.105469 233.667969 100.800781 234.921875 C 98.371094 236.25 95.816406 234.945312 94.3125 233.894531 C 94.3125 234.496094 94.210938 235.148438 93.835938 235.773438 C 93.210938 236.777344 92.035156 237.328125 90.355469 237.425781 C 90.28125 237.425781 90.230469 237.425781 90.15625 237.425781 Z M 90.105469 237.476562 " fill-opacity="1" fill-rule="nonzero"/><path fill="#271700" d="M 93.410156 233.066406 C 93.234375 233.066406 93.058594 232.992188 92.933594 232.84375 L 84.519531 221.921875 C 84.316406 221.671875 84.367188 221.296875 84.617188 221.09375 C 84.871094 220.894531 85.246094 220.945312 85.445312 221.195312 L 93.863281 232.117188 C 94.0625 232.367188 94.011719 232.742188 93.761719 232.941406 C 93.660156 233.019531 93.535156 233.066406 93.410156 233.066406 Z M 93.410156 233.066406 " fill-opacity="1" fill-rule="nonzero"/><path fill="#271700" d="M 102.253906 227.183594 C 102.078125 227.183594 101.878906 227.082031 101.777344 226.929688 L 92.058594 212.628906 C 91.882812 212.351562 91.957031 212.003906 92.207031 211.800781 C 92.484375 211.625 92.835938 211.703125 93.035156 211.953125 L 102.753906 226.253906 C 102.929688 226.53125 102.855469 226.882812 102.605469 227.082031 C 102.503906 227.15625 102.378906 227.183594 102.277344 227.183594 Z M 102.253906 227.183594 " fill-opacity="1" fill-rule="nonzero"/><path fill="#271700" d="M 109.242188 219.96875 C 109.042969 219.96875 108.839844 219.867188 108.714844 219.667969 L 100.324219 204.3125 C 100.175781 204.035156 100.273438 203.660156 100.550781 203.511719 C 100.824219 203.359375 101.203125 203.460938 101.351562 203.734375 L 109.742188 219.089844 C 109.894531 219.367188 109.792969 219.742188 109.515625 219.890625 C 109.417969 219.941406 109.34375 219.96875 109.242188 219.96875 Z M 109.242188 219.96875 " fill-opacity="1" fill-rule="nonzero"/><path fill="#271700" d="M 99.722656 239.078125 C 99.625 239.078125 99.523438 239.078125 99.449219 239.003906 C 99.171875 238.855469 99.070312 238.503906 99.222656 238.203125 L 104.183594 229.234375 C 104.332031 228.960938 104.707031 228.859375 104.984375 229.011719 C 105.257812 229.160156 105.359375 229.511719 105.210938 229.8125 L 100.25 238.78125 C 100.148438 238.980469 99.949219 239.078125 99.722656 239.078125 Z M 99.722656 239.078125 " fill-opacity="1" fill-rule="nonzero"/><path fill="#00b5a7" d="M 105.058594 274.550781 L 102.203125 360.644531 L 49.148438 360.644531 C 29.5625 337.847656 48.546875 286.246094 49.148438 284.617188 C 49.148438 284.59375 49.148438 284.570312 49.148438 284.570312 C 58.316406 263.027344 65.980469 247.347656 65.980469 247.347656 C 80.636719 252.507812 95.515625 262.800781 95.515625 262.800781 L 99.148438 253.507812 L 105.035156 274.523438 Z M 105.058594 274.550781 " fill-opacity="1" fill-rule="nonzero"/><path fill="#271700" d="M 97.019531 360.167969 C 96.640625 360.167969 96.316406 359.867188 96.316406 359.492188 C 95.589844 317.707031 100.949219 273.070312 101.527344 268.414062 L 95.113281 263.425781 C 94.8125 263.203125 94.765625 262.75 94.988281 262.449219 C 95.214844 262.148438 95.664062 262.101562 95.964844 262.324219 L 102.679688 267.5625 C 102.878906 267.710938 102.980469 267.960938 102.953125 268.210938 C 102.90625 268.6875 96.941406 315.65625 97.71875 359.492188 C 97.71875 359.867188 97.417969 360.191406 97.042969 360.191406 Z M 97.019531 360.167969 " fill-opacity="1" fill-rule="nonzero"/><path fill="#271700" d="M 220.308594 138.984375 C 220.308594 139.410156 221.5625 153.238281 224.644531 153.113281 C 227.097656 153.011719 228.976562 138.257812 228.976562 138.257812 Z M 220.308594 138.984375 " fill-opacity="1" fill-rule="nonzero"/><path fill="#00b5a7" d="M 287.339844 310.167969 C 287.339844 310.167969 304.800781 303.15625 302.546875 258.066406 C 302.546875 258.066406 327.894531 244.867188 343.625 247.996094 C 343.625 247.996094 366.871094 313.375 343.625 344.183594 C 320.378906 374.996094 261.640625 353.054688 261.640625 353.054688 Z M 287.339844 310.167969 " fill-opacity="1" fill-rule="nonzero"/><path fill="#271700" d="M 286.914062 319.636719 C 286.8125 319.636719 286.6875 319.636719 286.589844 319.5625 C 286.214844 319.386719 286.0625 318.9375 286.238281 318.558594 L 291.597656 307.136719 C 291.773438 306.761719 292.226562 306.613281 292.601562 306.789062 C 292.976562 306.960938 293.125 307.414062 292.953125 307.789062 L 287.589844 319.210938 C 287.464844 319.488281 287.191406 319.636719 286.914062 319.636719 Z M 286.914062 319.636719 " fill-opacity="1" fill-rule="nonzero"/><path fill="#271700" d="M 294.402344 319.636719 C 293.976562 319.636719 293.652344 319.3125 293.652344 318.886719 L 293.652344 311.195312 C 293.652344 310.769531 293.976562 310.445312 294.402344 310.445312 C 294.828125 310.445312 295.15625 310.769531 295.15625 311.195312 L 295.15625 318.886719 C 295.15625 319.3125 294.828125 319.636719 294.402344 319.636719 Z M 294.402344 319.636719 " fill-opacity="1" fill-rule="nonzero"/><path fill="#ffeee9" d="M 259.511719 12.710938 C 241.75 12.710938 227.347656 27.117188 227.347656 44.875 C 227.347656 62.636719 229.578125 58.300781 233.335938 63.585938 L 224.492188 76.285156 L 243.054688 72.527344 C 247.863281 75.410156 253.5 77.0625 259.511719 77.0625 C 277.269531 77.0625 291.675781 62.660156 291.675781 44.898438 C 291.675781 27.140625 277.269531 12.738281 259.511719 12.738281 Z M 259.511719 12.710938 " fill-opacity="1" fill-rule="nonzero"/><g clip-path="url(#cd18d4bdea)"><path fill="#271700" d="M 259.511719 77.816406 C 253.675781 77.816406 247.9375 76.261719 242.902344 73.332031 L 224.644531 77.011719 C 224.34375 77.0625 224.042969 76.9375 223.867188 76.6875 C 223.691406 76.4375 223.691406 76.085938 223.867188 75.835938 L 232.40625 63.585938 C 228.601562 58.074219 226.570312 51.613281 226.570312 44.875 C 226.570312 26.714844 241.351562 11.960938 259.484375 11.960938 C 277.621094 11.960938 292.398438 26.738281 292.398438 44.875 C 292.398438 63.011719 277.621094 77.789062 259.484375 77.789062 Z M 243.027344 71.777344 C 243.152344 71.777344 243.304688 71.804688 243.40625 71.878906 C 248.265625 74.785156 253.824219 76.3125 259.484375 76.3125 C 276.820312 76.3125 290.898438 62.210938 290.898438 44.898438 C 290.898438 27.589844 276.792969 13.488281 259.484375 13.488281 C 242.175781 13.488281 228.074219 27.589844 228.074219 44.898438 C 228.074219 62.210938 230.101562 57.824219 233.9375 63.160156 C 234.109375 63.410156 234.109375 63.761719 233.9375 64.039062 L 226.171875 75.183594 L 242.878906 71.804688 C 242.929688 71.804688 242.980469 71.804688 243.027344 71.804688 Z M 243.027344 71.777344 " fill-opacity="1" fill-rule="nonzero"/></g><path fill="#00b5a7" d="M 267.625 33.378906 C 267.601562 28.566406 263.667969 24.6875 258.859375 24.710938 C 254.050781 24.734375 250.167969 28.667969 250.191406 33.476562 C 250.191406 36.257812 251.519531 38.714844 253.550781 40.292969 C 247.613281 42.519531 243.40625 48.257812 243.429688 54.96875 L 243.480469 61.257812 L 274.640625 61.082031 L 274.589844 54.792969 C 274.539062 48.082031 270.257812 42.371094 264.296875 40.214844 C 266.300781 38.613281 267.601562 36.132812 267.578125 33.351562 Z M 267.625 33.378906 " fill-opacity="1" fill-rule="nonzero"/><path fill="#5ce1e6" d="M 337.363281 67.019531 L 335.007812 64.664062 C 334.007812 63.660156 332.378906 63.660156 331.375 64.664062 L 316.773438 79.265625 L 309.910156 72.402344 C 308.90625 71.402344 307.28125 71.402344 306.277344 72.402344 L 303.921875 74.757812 C 302.921875 75.761719 302.921875 77.390625 303.921875 78.390625 L 312.363281 86.832031 C 312.441406 86.933594 312.515625 87.007812 312.589844 87.082031 L 314.945312 89.4375 C 315.945312 90.4375 317.574219 90.4375 318.578125 89.4375 L 337.363281 70.652344 C 338.363281 69.648438 338.363281 68.019531 337.363281 67.019531 Z M 337.363281 67.019531 " fill-opacity="1" fill-rule="nonzero"/><path fill="#ffeee9" d="M 30.261719 264.40625 L 40.03125 264.40625 C 40.503906 264.40625 40.957031 264.496094 41.394531 264.675781 C 41.828125 264.855469 42.214844 265.109375 42.546875 265.441406 C 42.878906 265.773438 43.136719 266.160156 43.316406 266.59375 C 43.5 267.027344 43.589844 267.480469 43.589844 267.949219 C 43.589844 268.417969 43.5 268.871094 43.316406 269.304688 C 43.136719 269.738281 42.878906 270.121094 42.546875 270.457031 C 42.214844 270.789062 41.828125 271.042969 41.394531 271.222656 C 40.957031 271.402344 40.503906 271.492188 40.03125 271.492188 L 30.261719 271.492188 C 29.789062 271.492188 29.335938 271.402344 28.902344 271.222656 C 28.464844 271.042969 28.082031 270.789062 27.746094 270.457031 C 27.414062 270.121094 27.15625 269.738281 26.976562 269.304688 C 26.796875 268.871094 26.707031 268.417969 26.707031 267.949219 C 26.707031 267.480469 26.796875 267.027344 26.976562 266.59375 C 27.15625 266.160156 27.414062 265.773438 27.746094 265.441406 C 28.082031 265.109375 28.464844 264.855469 28.902344 264.675781 C 29.335938 264.496094 29.789062 264.40625 30.261719 264.40625 Z M 30.261719 264.40625 " fill-opacity="1" fill-rule="nonzero"/><path fill="#ffeee9" d="M 25.753906 251.027344 L 35.523438 251.027344 C 35.996094 251.027344 36.449219 251.117188 36.882812 251.296875 C 37.320312 251.476562 37.703125 251.734375 38.039062 252.066406 C 38.371094 252.398438 38.628906 252.78125 38.808594 253.214844 C 38.988281 253.652344 39.078125 254.101562 39.078125 254.574219 C 39.078125 255.042969 38.988281 255.496094 38.808594 255.929688 C 38.628906 256.363281 38.371094 256.746094 38.039062 257.078125 C 37.703125 257.410156 37.320312 257.667969 36.882812 257.847656 C 36.449219 258.027344 35.996094 258.117188 35.523438 258.117188 L 25.753906 258.117188 C 25.28125 258.117188 24.828125 258.027344 24.390625 257.847656 C 23.957031 257.667969 23.570312 257.410156 23.238281 257.078125 C 22.90625 256.746094 22.648438 256.363281 22.46875 255.929688 C 22.285156 255.496094 22.195312 255.042969 22.195312 254.574219 C 22.195312 254.101562 22.285156 253.652344 22.46875 253.214844 C 22.648438 252.78125 22.90625 252.398438 23.238281 252.066406 C 23.570312 251.734375 23.957031 251.476562 24.390625 251.296875 C 24.828125 251.117188 25.28125 251.027344 25.753906 251.027344 Z M 25.753906 251.027344 " fill-opacity="1" fill-rule="nonzero"/><path fill="#271700" d="M 40.03125 272.246094 L 30.238281 272.246094 C 27.859375 272.246094 25.929688 270.316406 25.929688 267.9375 C 25.929688 265.558594 27.859375 263.628906 30.238281 263.628906 L 40.03125 263.628906 C 42.410156 263.628906 44.339844 265.558594 44.339844 267.9375 C 44.339844 270.316406 42.410156 272.246094 40.03125 272.246094 Z M 30.238281 265.15625 C 28.683594 265.15625 27.433594 266.410156 27.433594 267.960938 C 27.433594 269.515625 28.683594 270.765625 30.238281 270.765625 L 40.03125 270.765625 C 41.585938 270.765625 42.835938 269.515625 42.835938 267.960938 C 42.835938 266.410156 41.585938 265.15625 40.03125 265.15625 Z M 30.238281 265.15625 " fill-opacity="1" fill-rule="nonzero"/><path fill="#271700" d="M 35.523438 258.867188 L 25.730469 258.867188 C 23.347656 258.867188 21.421875 256.941406 21.421875 254.558594 C 21.421875 252.179688 23.347656 250.25 25.730469 250.25 L 35.523438 250.25 C 37.902344 250.25 39.832031 252.179688 39.832031 254.558594 C 39.832031 256.941406 37.902344 258.867188 35.523438 258.867188 Z M 25.730469 251.78125 C 24.175781 251.78125 22.921875 253.03125 22.921875 254.585938 C 22.921875 256.136719 24.175781 257.390625 25.730469 257.390625 L 35.523438 257.390625 C 37.074219 257.390625 38.328125 256.136719 38.328125 254.585938 C 38.328125 253.03125 37.074219 251.78125 35.523438 251.78125 Z M 25.730469 251.78125 " fill-opacity="1" fill-rule="nonzero"/></svg>