<svg xmlns="http://www.w3.org/2000/svg" xmlns:xlink="http://www.w3.org/1999/xlink" width="500" zoomAndPan="magnify" viewBox="0 0 375 374.999991" height="500" preserveAspectRatio="xMidYMid meet" version="1.0"><defs><g/></defs><g fill="#ff3131" fill-opacity="1"><g transform="translate(52.218751, 306.999955)"><g><path d="M 147 -78.40625 L 148.75 -78.40625 C 149.21875 -83.300781 150.554688 -89.773438 152.765625 -97.828125 C 154.984375 -105.878906 157.84375 -114.21875 161.34375 -122.84375 L 193.203125 -199.15625 L 174.65625 -199.15625 L 174.65625 -244.65625 L 274.046875 -244.65625 L 274.046875 -199.15625 L 256.90625 -199.15625 L 172.90625 0 L 108.5 0 L 15.75 -199.15625 L -3.5 -199.15625 L -3.5 -244.65625 L 125.296875 -244.65625 L 125.296875 -199.15625 L 106.40625 -199.15625 L 136.15625 -120.75 C 138.945312 -112.113281 141.394531 -104.117188 143.5 -96.765625 C 145.601562 -89.421875 146.769531 -83.300781 147 -78.40625 Z M 147 -78.40625 "/></g></g></g></svg>