<svg xmlns="http://www.w3.org/2000/svg" xmlns:xlink="http://www.w3.org/1999/xlink" width="500" zoomAndPan="magnify" viewBox="0 0 375 374.999991" height="500" preserveAspectRatio="xMidYMid meet" version="1.0"><defs><clipPath id="43ffcea860"><path d="M 6.027344 21 L 369.027344 21 L 369.027344 354 L 6.027344 354 Z M 6.027344 21 " clip-rule="nonzero"/></clipPath></defs><path fill="#57a4fe" d="M 8.863281 243.296875 L 41.964844 235.570312 C 40.390625 228.503906 42.261719 221.390625 47.488281 214.601562 L 19.105469 204.425781 C 26.605469 197.21875 37.144531 190.554688 50.273438 184.695312 L 86.460938 189.941406 C 88.394531 189.222656 90.378906 188.53125 92.40625 187.863281 C 95.527344 196.507812 101.007812 204.027344 108.078125 209.640625 C 82.757812 223.777344 85.851562 243.238281 117.023438 256.058594 C 117.859375 256.40625 118.71875 256.746094 119.597656 257.078125 C 157.03125 271.34375 217.195312 271.101562 253.878906 256.554688 C 254.289062 256.390625 254.695312 256.230469 255.089844 256.058594 C 285.675781 243.480469 289.121094 224.609375 265.71875 210.613281 C 276.984375 202.234375 284.542969 189.140625 285.4375 174.265625 L 289.136719 173.28125 C 305.527344 177.722656 319.898438 183.199219 331.667969 189.488281 L 310.46875 202.035156 C 319.765625 208.132812 326.019531 214.855469 328.890625 221.851562 L 365.820312 226.238281 C 366.175781 228.390625 366.273438 230.554688 366.117188 232.707031 C 365.707031 238.300781 363.574219 243.863281 359.75 249.269531 L 321.304688 250.652344 C 314.835938 257.277344 305.210938 263.371094 292.929688 268.609375 L 307.144531 282.5625 C 292.347656 287.785156 275.410156 292.015625 257.042969 295.078125 L 230.292969 284.257812 C 212.933594 286.417969 194.6875 287.289062 176.492188 286.820312 L 157.289062 299.847656 C 137.554688 298.605469 118.492188 296.097656 100.878906 292.421875 L 105.976562 277.539062 C 90.796875 273.621094 77.660156 268.609375 67.261719 262.789062 L 29.097656 265.074219 C 19.289062 258.296875 12.457031 250.941406 8.863281 243.296875 Z M 8.863281 243.296875 " fill-opacity="1" fill-rule="evenodd"/><path fill="#57a4fe" d="M 19.105469 204.425781 L 19.105469 240.90625 L 41.964844 235.570312 C 40.390625 228.503906 42.261719 221.390625 47.488281 214.601562 Z M 19.105469 204.425781 " fill-opacity="1" fill-rule="evenodd"/><path fill="#dedbef" d="M 92.40625 187.863281 C 90.542969 182.683594 89.523438 177.097656 89.523438 171.28125 L 89.523438 73.328125 C 89.523438 46.292969 111.480469 24.347656 138.527344 24.347656 L 236.523438 24.347656 C 263.570312 24.347656 285.527344 46.292969 285.527344 73.328125 L 285.527344 171.28125 C 285.527344 172.289062 285.492188 173.28125 285.4375 174.265625 C 284.542969 189.140625 276.984375 202.234375 265.71875 210.613281 C 257.566406 216.671875 247.464844 220.257812 236.523438 220.257812 L 138.527344 220.257812 C 127.019531 220.257812 116.4375 216.289062 108.078125 209.640625 C 101.007812 204.027344 95.527344 196.507812 92.40625 187.863281 Z M 181.394531 170.847656 L 168.6875 170.847656 L 168.6875 133.199219 L 181.394531 133.199219 L 181.394531 54.210938 C 181.394531 50.828125 184.144531 48.078125 187.527344 48.078125 C 190.90625 48.078125 193.65625 50.828125 193.65625 54.210938 L 193.65625 133.199219 L 206.363281 133.199219 L 206.363281 170.847656 L 193.65625 170.847656 L 193.65625 190.402344 C 193.65625 193.78125 190.90625 196.53125 187.527344 196.53125 C 184.144531 196.53125 181.394531 193.78125 181.394531 190.402344 Z M 236.847656 130.023438 L 224.144531 130.023438 L 224.144531 92.371094 L 236.847656 92.371094 L 236.847656 54.210938 C 236.847656 50.828125 239.59375 48.078125 242.980469 48.078125 C 246.363281 48.078125 249.109375 50.828125 249.109375 54.210938 L 249.109375 92.371094 L 261.8125 92.371094 L 261.8125 130.023438 L 249.109375 130.023438 L 249.109375 190.402344 C 249.109375 193.78125 246.363281 196.53125 242.980469 196.53125 C 239.59375 196.53125 236.847656 193.78125 236.847656 190.402344 Z M 125.941406 118.171875 L 113.238281 118.171875 L 113.238281 80.523438 L 125.941406 80.523438 L 125.941406 54.210938 C 125.941406 50.828125 128.6875 48.078125 132.074219 48.078125 C 135.457031 48.078125 138.203125 50.828125 138.203125 54.210938 L 138.203125 80.523438 L 150.90625 80.523438 L 150.90625 118.171875 L 138.203125 118.171875 L 138.203125 190.402344 C 138.203125 193.78125 135.457031 196.53125 132.074219 196.53125 C 128.6875 196.53125 125.941406 193.78125 125.941406 190.402344 Z M 125.941406 118.171875 " fill-opacity="1" fill-rule="evenodd"/><path fill="#57a4fe" d="M 193.65625 170.847656 L 193.65625 190.402344 C 193.65625 193.78125 190.90625 196.53125 187.527344 196.53125 C 184.144531 196.53125 181.394531 193.78125 181.394531 190.402344 L 181.394531 170.847656 Z M 193.65625 170.847656 " fill-opacity="1" fill-rule="evenodd"/><path fill="#57a4fe" d="M 168.6875 133.199219 L 206.355469 133.199219 L 206.355469 170.847656 L 168.6875 170.847656 Z M 168.6875 133.199219 " fill-opacity="1" fill-rule="evenodd"/><path fill="#57a4fe" d="M 181.394531 133.199219 L 181.394531 54.210938 C 181.394531 50.828125 184.144531 48.078125 187.527344 48.078125 C 190.90625 48.078125 193.65625 50.828125 193.65625 54.210938 L 193.65625 133.199219 Z M 181.394531 133.199219 " fill-opacity="1" fill-rule="evenodd"/><path fill="#57a4fe" d="M 224.144531 92.371094 L 261.8125 92.371094 L 261.8125 130.023438 L 224.144531 130.023438 Z M 224.144531 92.371094 " fill-opacity="1" fill-rule="evenodd"/><path fill="#57a4fe" d="M 236.847656 92.371094 L 236.847656 54.210938 C 236.847656 50.828125 239.59375 48.078125 242.980469 48.078125 C 246.363281 48.078125 249.109375 50.828125 249.109375 54.210938 L 249.109375 92.371094 Z M 236.847656 92.371094 " fill-opacity="1" fill-rule="evenodd"/><path fill="#57a4fe" d="M 249.109375 130.023438 L 249.109375 190.402344 C 249.109375 193.78125 246.363281 196.53125 242.980469 196.53125 C 239.59375 196.53125 236.847656 193.78125 236.847656 190.402344 L 236.847656 130.023438 Z M 249.109375 130.023438 " fill-opacity="1" fill-rule="evenodd"/><path fill="#57a4fe" d="M 138.203125 118.171875 L 138.203125 190.402344 C 138.203125 193.78125 135.457031 196.53125 132.074219 196.53125 C 128.6875 196.53125 125.941406 193.78125 125.941406 190.402344 L 125.941406 118.171875 Z M 138.203125 118.171875 " fill-opacity="1" fill-rule="evenodd"/><path fill="#57a4fe" d="M 113.238281 80.523438 L 150.90625 80.523438 L 150.90625 118.171875 L 113.238281 118.171875 Z M 113.238281 80.523438 " fill-opacity="1" fill-rule="evenodd"/><path fill="#57a4fe" d="M 125.941406 80.523438 L 125.941406 54.210938 C 125.941406 50.828125 128.6875 48.078125 132.074219 48.078125 C 135.457031 48.078125 138.203125 50.828125 138.203125 54.210938 L 138.203125 80.523438 Z M 125.941406 80.523438 " fill-opacity="1" fill-rule="evenodd"/><path fill="#57a4fe" d="M 331.667969 189.488281 L 331.667969 222.183594 L 328.890625 221.851562 C 326.019531 214.855469 319.765625 208.132812 310.46875 202.035156 Z M 331.667969 189.488281 " fill-opacity="1" fill-rule="evenodd"/><path fill="#57a4fe" d="M 366.117188 232.707031 L 365.96875 282.003906 C 365.480469 287.871094 363.714844 294.886719 359.75 299.960938 L 321.304688 301.34375 C 317.59375 305.148438 312.839844 308.777344 307.144531 312.164062 L 307.144531 282.5625 L 292.929688 268.609375 C 305.210938 263.371094 314.835938 257.277344 321.304688 250.652344 L 359.75 249.269531 C 363.574219 243.863281 365.707031 238.300781 366.117188 232.707031 Z M 366.117188 232.707031 " fill-opacity="1" fill-rule="evenodd"/><path fill="#57a4fe" d="M 307.144531 282.5625 L 307.144531 333.261719 C 292.347656 338.484375 275.410156 342.714844 257.042969 345.773438 L 230.292969 334.945312 L 230.292969 284.257812 L 257.042969 295.078125 C 275.410156 292.015625 292.347656 287.785156 307.144531 282.5625 Z M 307.144531 282.5625 " fill-opacity="1" fill-rule="evenodd"/><path fill="#57a4fe" d="M 100.878906 326.855469 C 87.847656 323.160156 76.476562 318.648438 67.261719 313.488281 L 67.261719 262.789062 C 77.660156 268.609375 90.796875 273.621094 105.976562 277.539062 L 100.878906 292.421875 Z M 100.878906 326.855469 " fill-opacity="1" fill-rule="evenodd"/><path fill="#57a4fe" d="M 67.261719 313.488281 L 29.097656 315.769531 C 19.289062 308.996094 12.457031 301.640625 8.863281 293.992188 L 8.863281 243.296875 C 12.457031 250.941406 19.289062 258.296875 29.097656 265.074219 L 67.261719 262.789062 Z M 67.261719 313.488281 " fill-opacity="1" fill-rule="evenodd"/><path fill="#57a4fe" d="M 230.292969 334.945312 C 212.933594 337.117188 194.6875 337.988281 176.492188 337.519531 L 176.492188 286.820312 C 194.6875 287.289062 212.933594 286.417969 230.292969 284.257812 Z M 230.292969 334.945312 " fill-opacity="1" fill-rule="evenodd"/><path fill="#57a4fe" d="M 176.492188 337.519531 L 157.289062 350.542969 C 137.554688 349.304688 118.492188 346.796875 100.878906 343.117188 L 100.878906 292.421875 C 118.492188 296.097656 137.554688 298.605469 157.289062 299.847656 L 176.492188 286.820312 Z M 176.492188 337.519531 " fill-opacity="1" fill-rule="evenodd"/><path fill="#57a4fe" d="M 117.023438 256.058594 C 85.851562 243.238281 82.757812 223.777344 108.078125 209.640625 C 116.4375 216.289062 127.019531 220.257812 138.527344 220.257812 L 236.523438 220.257812 C 247.464844 220.257812 257.566406 216.671875 265.71875 210.613281 C 289.121094 224.609375 285.675781 243.480469 255.089844 256.058594 C 254.253906 255.71875 253.398438 255.378906 252.519531 255.046875 C 215.089844 240.78125 154.917969 241.019531 118.242188 255.570312 C 117.832031 255.734375 117.429688 255.894531 117.023438 256.058594 Z M 117.023438 256.058594 " fill-opacity="1" fill-rule="evenodd"/><g clip-path="url(#43ffcea860)"><path fill="#003586" d="M 6.03125 294 L 6.03125 243.304688 C 6.035156 242.875 6.125 242.449219 6.3125 242.070312 C 6.6875 241.304688 7.382812 240.738281 8.21875 240.542969 C 8.21875 240.542969 11.6875 239.734375 16.273438 238.664062 L 16.273438 204.429688 C 16.273438 203.648438 16.597656 202.914062 17.144531 202.386719 C 24.851562 194.992188 35.640625 188.125 49.121094 182.113281 C 49.617188 181.898438 50.152344 181.820312 50.6875 181.894531 C 50.6875 181.894531 86.164062 187.035156 86.15625 187.039062 C 87.039062 186.714844 87.933594 186.394531 88.84375 186.082031 C 87.445312 181.390625 86.695312 176.425781 86.695312 171.285156 L 86.695312 73.332031 C 86.699219 44.734375 109.917969 21.515625 138.527344 21.515625 L 236.53125 21.515625 C 265.140625 21.515625 288.367188 44.734375 288.367188 73.332031 L 288.367188 170.558594 L 288.410156 170.546875 C 288.894531 170.417969 289.398438 170.417969 289.882812 170.546875 C 306.5 175.058594 321.070312 180.617188 333 186.984375 C 333.007812 186.988281 333.007812 186.988281 333.003906 186.988281 C 333.898438 187.464844 334.484375 188.386719 334.511719 189.425781 C 334.511719 189.449219 334.511719 189.46875 334.511719 189.492188 L 334.507812 219.667969 L 366.160156 223.425781 C 367.414062 223.574219 368.417969 224.535156 368.625 225.78125 C 369.015625 228.128906 369.121094 230.476562 368.957031 232.820312 C 368.957031 232.820312 368.808594 282.011719 368.8125 282.015625 C 368.808594 282.089844 368.804688 282.167969 368.804688 282.238281 C 368.800781 282.242188 368.800781 282.242188 368.800781 282.246094 C 368.269531 288.613281 366.289062 296.203125 361.996094 301.714844 C 361.480469 302.375 360.699219 302.773438 359.863281 302.800781 C 359.863281 302.800781 322.523438 304.144531 322.527344 304.140625 C 319.109375 307.5 314.910156 310.722656 309.988281 313.769531 L 309.984375 333.265625 C 309.988281 334.464844 309.222656 335.539062 308.089844 335.941406 C 293.152344 341.214844 276.070312 345.488281 257.519531 348.574219 C 257 348.664062 256.464844 348.605469 255.988281 348.410156 C 255.988281 348.410156 236.246094 340.417969 231.117188 338.347656 C 230.859375 338.421875 230.589844 338.464844 230.300781 338.464844 C 229.726562 338.464844 229.195312 338.292969 228.742188 338 C 212.113281 339.980469 194.703125 340.789062 177.34375 340.382812 L 158.886719 352.898438 C 158.363281 353.25 157.75 353.417969 157.113281 353.378906 C 137.621094 352.152344 118.769531 349.695312 101.3125 346.109375 C 101.179688 346.132812 101.03125 346.140625 100.886719 346.140625 C 99.324219 346.140625 98.050781 344.871094 98.054688 343.304688 L 98.050781 343.179688 C 98.050781 343.144531 98.050781 343.113281 98.058594 343.078125 L 98.054688 329 C 86.34375 325.554688 76.007812 321.441406 67.410156 316.804688 C 67.363281 316.804688 67.3125 316.804688 67.265625 316.804688 C 66.746094 316.804688 66.257812 316.667969 65.839844 316.417969 L 29.273438 318.605469 C 28.636719 318.640625 28.011719 318.464844 27.488281 318.105469 C 17.199219 310.996094 10.066406 303.230469 6.304688 295.203125 C 6.121094 294.828125 6.035156 294.417969 6.03125 294 Z M 11.703125 253.101562 L 11.707031 293.351562 C 14.589844 299.203125 19.507812 304.839844 26.261719 310.167969 L 26.265625 266.550781 C 20.265625 262.269531 15.394531 257.757812 11.703125 253.101562 Z M 19.703125 243.6875 C 15.867188 244.578125 13.105469 245.222656 13.105469 245.222656 C 16.671875 251.152344 22.34375 256.84375 29.917969 262.191406 C 29.917969 262.191406 67.097656 259.96875 67.097656 259.96875 C 67.15625 259.964844 67.21875 259.960938 67.269531 259.960938 C 67.761719 259.964844 68.238281 260.09375 68.65625 260.324219 C 78.871094 266.042969 91.78125 270.945312 106.6875 274.804688 C 107.457031 275.003906 108.101562 275.507812 108.476562 276.203125 C 108.859375 276.898438 108.921875 277.714844 108.664062 278.464844 C 108.664062 278.464844 104.621094 290.296875 104.621094 290.296875 C 120.929688 293.539062 138.425781 295.785156 156.507812 296.964844 L 174.910156 284.484375 C 175.371094 284.167969 175.929688 283.996094 176.5 283.996094 C 176.527344 283.996094 176.554688 283.996094 176.574219 284 C 194.617188 284.460938 212.726562 283.597656 229.941406 281.445312 C 229.941406 281.445312 229.941406 281.445312 229.953125 281.445312 C 230.0625 281.429688 230.183594 281.425781 230.304688 281.425781 C 230.675781 281.425781 231.027344 281.496094 231.363281 281.628906 C 231.363281 281.628906 257.371094 292.15625 257.371094 292.15625 C 273.503906 289.433594 288.5 285.800781 301.886719 281.371094 L 290.949219 270.632812 C 290.277344 269.96875 289.976562 269.015625 290.15625 268.085938 C 290.320312 267.15625 290.953125 266.375 291.820312 266.003906 C 303.703125 260.941406 313.027344 255.082031 319.285156 248.675781 C 319.777344 248.164062 320.460938 247.847656 321.210938 247.820312 C 321.210938 247.820312 358.222656 246.488281 358.222656 246.488281 C 361.234375 241.910156 362.953125 237.226562 363.296875 232.507812 C 363.296875 232.507812 363.296875 232.507812 363.289062 232.503906 C 363.386719 231.269531 363.378906 230.03125 363.285156 228.796875 L 331.632812 225.039062 C 331.429688 225.035156 331.234375 225.011719 331.039062 224.96875 L 328.5625 224.671875 C 327.539062 224.554688 326.660156 223.886719 326.269531 222.933594 C 323.574219 216.371094 317.644531 210.128906 308.917969 204.40625 C 308.105469 203.871094 307.621094 202.953125 307.640625 201.972656 C 307.664062 200.996094 308.1875 200.097656 309.03125 199.601562 C 309.03125 199.601562 325.800781 189.671875 325.800781 189.671875 C 315.292969 184.535156 302.945312 180.007812 289.132812 176.21875 L 288.109375 176.492188 C 286.757812 189.96875 280.238281 201.929688 270.554688 210.363281 C 281.140625 217.734375 285.210938 226.304688 283.425781 234.480469 C 281.53125 243.136719 272.648438 251.914062 256.183594 258.6875 C 255.769531 258.859375 255.355469 259.027344 254.933594 259.195312 C 217.691406 273.96875 156.597656 274.214844 118.59375 259.738281 C 117.691406 259.394531 116.8125 259.042969 115.953125 258.691406 C 99.148438 251.777344 90.203125 242.742188 88.582031 233.863281 C 87.050781 225.488281 91.695312 216.691406 103.253906 209.238281 C 97.925781 204.285156 93.632812 198.21875 90.753906 191.417969 C 89.640625 191.808594 88.535156 192.203125 87.449219 192.601562 C 87.007812 192.769531 86.523438 192.816406 86.0625 192.75 C 86.0625 192.75 50.6875 187.628906 50.6875 187.628906 C 40.140625 192.390625 31.339844 197.679688 24.546875 203.367188 L 48.457031 211.941406 C 49.304688 212.246094 49.957031 212.941406 50.210938 213.808594 C 50.460938 214.679688 50.296875 215.621094 49.742188 216.335938 C 45.097656 222.378906 43.339844 228.675781 44.738281 234.957031 C 45.082031 236.476562 44.128906 237.980469 42.613281 238.332031 C 42.613281 238.332031 28.519531 241.625 19.808594 243.660156 C 19.777344 243.667969 19.742188 243.675781 19.703125 243.6875 Z M 64.429688 265.804688 L 31.9375 267.75 L 31.9375 312.765625 L 64.433594 310.824219 Z M 21.949219 208.457031 L 21.945312 237.339844 C 30.050781 235.449219 38.742188 233.414062 38.742188 233.414062 C 38.097656 227.570312 39.523438 221.710938 43.058594 216.027344 Z M 282.613281 174.050781 C 282.667969 173.136719 282.695312 172.214844 282.695312 171.285156 L 282.695312 73.328125 C 282.695312 47.863281 262.007812 27.183594 236.53125 27.1875 L 138.53125 27.1875 C 113.054688 27.1875 92.367188 47.863281 92.367188 73.332031 L 92.371094 171.289062 C 92.367188 185.898438 99.179688 198.933594 109.796875 207.390625 C 109.832031 207.417969 109.859375 207.445312 109.898438 207.476562 C 117.773438 213.707031 127.722656 217.429688 138.53125 217.429688 L 236.53125 217.433594 C 246.8125 217.429688 256.300781 214.066406 263.980469 208.378906 C 264.019531 208.355469 264.046875 208.328125 264.085938 208.300781 C 274.660156 200.421875 281.75 188.125 282.605469 174.152344 C 282.609375 174.117188 282.613281 174.085938 282.613281 174.050781 Z M 328.832031 194.460938 C 323.679688 197.511719 315.714844 202.230469 315.714844 202.230469 C 321.464844 206.476562 325.855469 211 328.835938 215.660156 Z M 363.136719 281.882812 L 363.238281 249.183594 C 362.867188 249.761719 362.484375 250.335938 362.074219 250.90625 C 361.5625 251.628906 360.75 252.074219 359.859375 252.105469 C 359.859375 252.105469 331.304688 253.132812 324.140625 253.386719 L 324.148438 298.410156 C 332.914062 298.097656 358.28125 297.1875 358.273438 297.1875 C 361.339844 292.683594 362.714844 286.839844 363.136719 281.882812 Z M 309.988281 307.015625 C 313.21875 304.820312 316.058594 302.539062 318.464844 300.179688 L 318.476562 257.066406 C 313 261.53125 306.101562 265.722656 297.902344 269.511719 L 309.136719 280.546875 C 309.679688 281.074219 309.988281 281.800781 309.980469 282.570312 Z M 304.320312 331.25 L 304.316406 286.539062 C 290.949219 291 275.988281 294.691406 259.890625 297.480469 L 259.886719 342.421875 C 276.035156 339.574219 291.015625 335.816406 304.320312 331.25 Z M 233.140625 333.046875 C 237.476562 334.800781 248.695312 339.339844 254.21875 341.574219 L 254.210938 296.996094 C 249.875 295.242188 238.683594 290.710938 233.140625 288.464844 Z M 103.726562 340.8125 C 119.675781 344.027344 136.773438 346.289062 154.457031 347.523438 L 154.460938 302.507812 C 136.792969 301.292969 119.703125 299.066406 103.722656 295.898438 L 103.722656 326.808594 C 103.726562 326.84375 103.726562 326.882812 103.71875 326.921875 Z M 160.132812 345.203125 L 173.667969 336.023438 L 173.664062 292.179688 L 160.128906 301.355469 Z M 179.339844 334.753906 C 195.605469 335.050781 211.875 334.269531 227.464844 332.441406 L 227.460938 287.453125 C 211.863281 289.25 195.59375 290.019531 179.335938 289.730469 Z M 70.105469 311.816406 C 78.007812 316.074219 87.421875 319.863281 98.054688 323.078125 L 98.054688 292.429688 C 98.050781 292.113281 98.105469 291.804688 98.203125 291.511719 C 98.203125 291.511719 102.3125 279.507812 102.3125 279.507812 C 90.074219 276.171875 79.210938 272.125 70.105469 267.519531 Z M 255.078125 253 C 268.546875 247.285156 276.304688 240.503906 277.890625 233.269531 C 279.351562 226.546875 275.082031 219.949219 265.839844 214.019531 C 257.503906 219.746094 247.402344 223.101562 236.535156 223.101562 L 138.53125 223.101562 C 127.054688 223.101562 116.449219 219.367188 107.859375 213.050781 C 97.710938 219.097656 92.886719 225.886719 94.160156 232.84375 C 95.515625 240.246094 103.335938 247.183594 117.046875 253.003906 C 117.101562 252.984375 117.15625 252.960938 117.203125 252.945312 C 154.445312 238.167969 215.53125 237.917969 253.535156 252.398438 C 254.0625 252.597656 254.570312 252.800781 255.078125 253 Z M 125.183594 256.066406 C 160.179688 267.761719 212.097656 267.722656 246.945312 256.066406 C 211.949219 244.375 160.035156 244.417969 125.183594 256.066406 Z M 234.011719 132.859375 L 224.152344 132.859375 C 222.582031 132.859375 221.316406 131.589844 221.3125 130.023438 L 221.3125 92.371094 C 221.316406 90.808594 222.582031 89.539062 224.148438 89.535156 L 234.015625 89.539062 L 234.019531 54.214844 C 234.015625 49.265625 238.035156 45.25 242.988281 45.25 C 247.933594 45.25 251.953125 49.265625 251.953125 54.214844 L 251.953125 89.539062 L 261.820312 89.539062 C 263.382812 89.539062 264.65625 90.808594 264.652344 92.371094 L 264.652344 130.023438 C 264.65625 131.589844 263.382812 132.859375 261.816406 132.859375 L 251.949219 132.859375 L 251.957031 190.402344 C 251.957031 195.351562 247.933594 199.371094 242.980469 199.367188 C 238.039062 199.371094 234.019531 195.351562 234.011719 190.40625 Z M 236.851562 95.207031 L 226.988281 95.207031 L 226.984375 127.1875 L 249.117188 127.1875 L 258.984375 127.191406 L 258.980469 95.207031 Z M 246.277344 89.535156 L 246.28125 54.210938 C 246.28125 52.394531 244.804688 50.917969 242.980469 50.917969 C 241.164062 50.917969 239.6875 52.394531 239.6875 54.210938 L 239.6875 89.539062 Z M 239.6875 132.859375 L 239.691406 190.402344 C 239.691406 192.222656 241.167969 193.695312 242.984375 193.699219 C 244.796875 193.699219 246.277344 192.222656 246.277344 190.402344 L 246.28125 132.859375 Z M 178.566406 173.6875 L 168.699219 173.6875 C 167.132812 173.6875 165.859375 172.417969 165.867188 170.855469 L 165.859375 133.203125 C 165.863281 131.636719 167.128906 130.367188 168.699219 130.367188 L 178.558594 130.367188 L 178.5625 54.214844 C 178.5625 49.265625 182.582031 45.25 187.535156 45.25 C 192.480469 45.25 196.5 49.265625 196.5 54.214844 L 196.496094 130.367188 L 206.363281 130.367188 C 207.929688 130.367188 209.203125 131.636719 209.199219 133.203125 L 209.203125 170.855469 C 209.199219 172.417969 207.929688 173.6875 206.367188 173.6875 L 196.503906 173.6875 L 196.5 190.402344 C 196.5 195.351562 192.484375 199.367188 187.53125 199.367188 C 182.582031 199.371094 178.566406 195.351562 178.5625 190.402344 Z M 181.402344 136.039062 L 171.535156 136.039062 L 171.53125 168.015625 L 193.65625 168.019531 L 203.53125 168.019531 L 203.53125 136.039062 Z M 190.828125 130.367188 L 190.828125 54.210938 C 190.828125 52.394531 189.351562 50.917969 187.527344 50.917969 C 185.710938 50.917969 184.234375 52.394531 184.230469 54.210938 L 184.234375 130.367188 Z M 184.234375 173.6875 L 184.238281 190.40625 C 184.238281 192.222656 185.710938 193.699219 187.527344 193.699219 C 189.355469 193.699219 190.820312 192.222656 190.828125 190.402344 L 190.832031 173.6875 Z M 123.113281 121.011719 L 113.242188 121.011719 C 111.679688 121.011719 110.40625 119.742188 110.410156 118.175781 L 110.40625 80.523438 C 110.40625 78.960938 111.675781 77.691406 113.246094 77.691406 L 123.113281 77.691406 L 123.109375 54.214844 C 123.109375 49.265625 127.128906 45.25 132.078125 45.25 C 137.027344 45.25 141.042969 49.265625 141.046875 54.214844 L 141.042969 77.691406 L 150.910156 77.691406 C 152.476562 77.691406 153.746094 78.960938 153.746094 80.523438 L 153.75 118.175781 C 153.746094 119.742188 152.480469 121.011719 150.910156 121.011719 L 141.046875 121.011719 L 141.042969 190.402344 C 141.046875 195.351562 137.027344 199.367188 132.078125 199.367188 C 127.132812 199.367188 123.109375 195.351562 123.109375 190.402344 Z M 125.949219 83.359375 L 116.078125 83.359375 L 116.082031 115.34375 L 138.207031 115.339844 L 148.074219 115.34375 L 148.078125 83.359375 Z M 135.375 77.691406 L 135.375 54.210938 C 135.375 52.394531 133.898438 50.917969 132.082031 50.917969 C 130.257812 50.917969 128.777344 52.394531 128.777344 54.210938 L 128.78125 77.691406 Z M 128.777344 121.011719 L 128.78125 190.40625 C 128.78125 192.222656 130.257812 193.699219 132.078125 193.695312 C 133.898438 193.699219 135.378906 192.222656 135.378906 190.40625 L 135.375 121.011719 Z M 128.777344 121.011719 " fill-opacity="1" fill-rule="evenodd"/></g></svg>