<svg xmlns="http://www.w3.org/2000/svg" xmlns:xlink="http://www.w3.org/1999/xlink" width="500" zoomAndPan="magnify" viewBox="0 0 375 374.999991" height="500" preserveAspectRatio="xMidYMid meet" version="1.0"><defs><clipPath id="dc8cd0fdaf"><path d="M 45 45 L 337.5 45 L 337.5 337.5 L 45 337.5 Z M 45 45 " clip-rule="nonzero"/></clipPath><clipPath id="93c63c7a60"><path d="M 37.5 37.5 L 330 37.5 L 330 330 L 37.5 330 Z M 37.5 37.5 " clip-rule="nonzero"/></clipPath></defs><g clip-path="url(#dc8cd0fdaf)"><path fill="#110804" d="M 191.523438 337.386719 C 188.648438 337.386719 186.179688 335.347656 185.640625 332.523438 C 176.175781 283.207031 167.503906 252.9375 148.808594 234.242188 C 130.117188 215.546875 99.84375 206.875 50.527344 197.414062 C 47.703125 196.871094 45.664062 194.402344 45.664062 191.527344 C 45.664062 188.652344 47.703125 186.179688 50.527344 185.640625 C 99.84375 176.175781 130.117188 167.503906 148.808594 148.808594 C 167.503906 130.117188 176.175781 99.847656 185.640625 50.527344 C 186.179688 47.707031 188.648438 45.664062 191.523438 45.664062 C 194.398438 45.664062 196.871094 47.707031 197.410156 50.527344 C 206.875 99.847656 215.546875 130.117188 234.242188 148.808594 C 252.933594 167.503906 283.203125 176.175781 332.523438 185.640625 C 335.34375 186.179688 337.386719 188.652344 337.386719 191.527344 C 337.386719 194.402344 335.34375 196.871094 332.523438 197.414062 C 283.203125 206.875 252.933594 215.550781 234.242188 234.242188 C 215.546875 252.933594 206.875 283.207031 197.410156 332.523438 C 196.871094 335.347656 194.398438 337.386719 191.523438 337.386719 Z M 191.523438 337.386719 " fill-opacity="1" fill-rule="nonzero"/></g><g clip-path="url(#93c63c7a60)"><path fill="#110804" d="M 183.363281 329.226562 C 180.488281 329.226562 178.015625 327.183594 177.476562 324.359375 C 168.011719 275.042969 159.339844 244.773438 140.644531 226.078125 C 121.953125 207.386719 91.683594 198.714844 42.363281 189.25 C 39.542969 188.707031 37.5 186.238281 37.5 183.363281 C 37.5 180.488281 39.542969 178.019531 42.363281 177.476562 C 91.683594 168.011719 121.953125 159.339844 140.644531 140.648438 C 159.339844 121.953125 168.011719 91.683594 177.476562 42.367188 C 178.015625 39.542969 180.488281 37.5 183.363281 37.5 C 186.238281 37.5 188.707031 39.542969 189.25 42.367188 C 198.714844 91.683594 207.386719 121.953125 226.078125 140.648438 C 244.773438 159.339844 275.042969 168.011719 324.359375 177.476562 C 327.183594 178.019531 329.222656 180.488281 329.222656 183.363281 C 329.222656 186.238281 327.183594 188.707031 324.359375 189.25 C 275.042969 198.714844 244.773438 207.386719 226.078125 226.078125 C 207.386719 244.773438 198.714844 275.042969 189.25 324.359375 C 188.707031 327.183594 186.238281 329.226562 183.363281 329.226562 Z M 183.363281 329.226562 " fill-opacity="1" fill-rule="nonzero"/></g><path fill="#ff3131" d="M 323.230469 183.363281 C 219.429688 203.28125 203.28125 219.429688 183.363281 323.230469 C 163.441406 219.429688 147.296875 203.28125 43.496094 183.363281 C 147.296875 163.441406 163.441406 147.296875 183.363281 43.496094 C 203.28125 147.296875 219.429688 163.441406 323.230469 183.363281 Z M 323.230469 183.363281 " fill-opacity="1" fill-rule="nonzero"/></svg>